<svg width="50" height="50" viewBox="0 0 200 200" xmlns="http://www.w3.org/2000/svg" stroke-linecap="round" stroke-linejoin="round" fill="none" stroke-width="8">
	<!-- Corner Brackets -->
	<path d="M10 10h30v30" stroke="#3D4F66" />
	<path d="M190 10h-30v30" stroke="#3D4F66" />
	<path d="M10 190h30v-30" stroke="#3D4F66" />
	<path d="M190 190h-30v-30" stroke="#3D4F66" />
	<!-- Binary Digits -->
	<line x1="10" y1="60" x2="10" y2="80" stroke="#42D7F5" />
	<line x1="30" y1="60" x2="30" y2="80" stroke="#42D7F5" />
	<line x1="50" y1="60" x2="50" y2="80" stroke="#42D7F5" />
	<line x1="70" y1="60" x2="70" y2="80" stroke="#42D7F5" />
	<line x1="130" y1="60" x2="130" y2="80" stroke="#42D7F5" />
	<line x1="150" y1="60" x2="150" y2="80" stroke="#42D7F5" />
	<line x1="170" y1="60" x2="170" y2="80" stroke="#42D7F5" />
	<line x1="190" y1="60" x2="190" y2="80" stroke="#42D7F5" />
	<line x1="10" y1="140" x2="10" y2="160" stroke="#42D7F5" />
	<line x1="30" y1="140" x2="30" y2="160" stroke="#42D7F5" />
	<line x1="50" y1="140" x2="50" y2="160" stroke="#42D7F5" />
	<line x1="70" y1="140" x2="70" y2="160" stroke="#42D7F5" />
	<line x1="130" y1="140" x2="130" y2="160" stroke="#42D7F5" />
	<line x1="150" y1="140" x2="150" y2="160" stroke="#42D7F5" />
	<line x1="170" y1="140" x2="170" y2="160" stroke="#42D7F5" />
	<line x1="190" y1="140" x2="190" y2="160" stroke="#42D7F5" />
	<!-- BYTE Text -->
	<text x="50" y="125" font-size="30" fill="#00D6CB" font-family="monospace" font-weight="bold">
		BYTE
	</text>
	<!-- Center Connections -->
	<!--
	<line x1="100" y1="30" x2="100" y2="60" stroke="#00D6CB" />
	<line x1="100" y1="140" x2="100" y2="170" stroke="#00D6CB" />
	<line x1="70" y1="100" x2="90" y2="100" stroke="#00D6CB" />
	<line x1="110" y1="100" x2="130" y2="100" stroke="#00D6CB" />
	-->
	<!-- Corner Dots -->
	<circle cx="10" cy="10" r="7" fill="#FF4C5B" />
	<circle cx="190" cy="10" r="7" fill="#FF4C5B" />
	<circle cx="10" cy="190" r="7" fill="#FF4C5B" />
	<circle cx="190" cy="190" r="7" fill="#FF4C5B" />
</svg>
