<svg width="204" height="308" viewBox="0 0 204 308" fill="none" xmlns="http://www.w3.org/2000/svg">
<path d="M43.7006 50.6992L25.0771 63.6085L33.1743 51.5598L41.6763 41.2324L61.1095 21.8684C58.1164 33.0506 55.1378 38.5562 45.7249 45.9658L52.6075 42.5233C47.0031 61.4056 42.6381 71.1245 31.9597 86.4149L38.4374 82.9725L36.4132 94.1605C33.6405 107.185 32.2571 114.671 27.9111 126.003C26.8328 139.311 23.2289 144.985 17.7897 155.695C22.5703 151.626 24.1801 149.263 25.482 144.937C25.3084 161.973 22.3894 169.561 17.3848 183.235L15.3605 200.877L17.7897 198.726L22.2431 197.005L29.9354 198.726L49.7735 208.623L60.2998 220.672L67.1824 245.63L75.2795 229.278L83.7816 258.539L91.8787 245.63L106.454 261.551L110.907 280.485L122.648 249.072L119.814 220.672H124.672H133.984L143.701 224.545L146.535 220.672L148.559 212.066V198.726C145.188 193.307 142.726 189.18 138.033 183.235C143.68 187.643 148.568 190.436 152.607 196.574C153.417 205.611 155.452 217.354 157.061 230.569L153.417 224.545L150.988 219.811L148.559 220.672L150.988 233.151L150.178 249.072L145.32 230.569C142.081 227.987 140.057 227.557 137.628 225.405C132.104 224.588 130.16 224.781 126.292 225.405V226.696C129.758 241.023 130.555 248.818 126.292 261.551C120.617 276.01 115.556 284.796 105.644 296.837L106.049 283.067L102 268.866L91.8787 252.515L81.3524 271.018L74.065 236.593L67.1824 268.866L60.2998 255.957L54.6318 230.569L53.4172 221.532L49.7735 214.647L29.9354 203.029L19.814 201.308L12.5265 207.332V189.689L15.3605 173.338L19.4091 158.277L11.7168 162.15L3.61963 171.616C4.73415 166.29 5.90447 163.501 9.6925 159.137L17.3848 147.519L25.482 122.131L31.15 96.7424L14.1459 113.094L43.7006 50.6992Z" fill="#E5E5E5" stroke="#E6E8ED" stroke-width="2"/>
<path d="M184.169 115.692L191.167 134.61C207.29 106.016 205.785 90.7972 184.169 70.7632L179.97 62.8809C177.116 60.4759 175.2 60.9456 171.572 62.8809C169.192 67.0874 167.87 69.7334 165.563 75.6573L154.631 84.2635C151.87 91.1147 153.019 89.3225 150.178 95.8818C144.51 101.906 138.851 101.74 128.181 99.9277C122.622 98.4533 116.98 98.4637 111.716 99.9277C107.668 101.906 107.207 103.834 111.716 110.082C113.048 112.14 124.267 112.664 134.48 114.385C144.693 116.106 158.274 115.692 158.274 115.692C169.985 117.846 175.559 119.431 179.97 124.363C180.861 121.341 180.893 117.288 179.97 113.525L184.169 115.692ZM184.169 115.692C178.325 111.349 173.061 109.502 158.274 107.81H134.48C129.374 107.432 126.636 107.449 119.783 103.869" stroke="black" stroke-width="3"/>
<path d="M181.352 61.4568C187.425 53.7112 187.467 48.1916 186.211 43.3837C184.443 40.8387 184.507 37.8595 171.715 21.4378C160.055 12.289 155.702 9.8605 151.067 9.38915C155.897 13.4712 157.497 15.9702 159.569 20.5772C143.299 9.10193 130.088 1.14265 122.322 2.07396C134.48 8.1156 140.69 11.3842 144.589 17.1347C108.962 -2.65967 86.2896 3.36468 81.8362 5.51635C90.8503 6.64032 109.292 5.87854 117.059 11.5406C90.1658 7.82019 55.5204 9.38915 41.7552 31.3349C48.7127 27.5801 52.7679 25.2574 60.3787 20.5772C40.222 39.1821 30.3033 49.5333 21.5123 67.481C30.0749 61.9559 34.1481 59.3054 39.326 55.8626C27.6593 80.9764 21.1498 94.9907 10.986 116.967C19.7018 110.873 23.5968 107.387 27.9901 102.766C27.9901 102.766 19.488 145.367 10.986 154.404C2.48388 163.44 1.6853 168.38 2.07907 176.78C5.47563 170.339 10.2229 163.077 17.0589 160.858C10.9274 180.039 9.46533 193.879 10.986 212.496C18.7639 200.186 23.4575 200.877 40.0567 210.774C63.5385 224.775 40.9442 220.67 68.071 274.46C68.6939 262.359 70.3537 255.576 74.5487 243.478C79.0482 256.581 78.6107 266.299 80.6216 277.903C83.7507 268.122 85.6706 262.814 91.9576 256.387C104.812 271.828 105.882 282.245 103.699 302C129.357 269.642 134.939 253.119 128.395 226.696C141.743 225.355 147.453 231.348 149.043 254.666C151.486 249.748 155.001 243.142 150.257 220.241C150.826 225.68 153.958 228.514 160.379 235.302C156.127 219.562 154.714 212.022 154.306 200.447C159.924 209.509 162.491 213.027 166.452 217.659C164.301 200.604 161.672 191.272 154.306 175.059C161.064 180.063 165.166 187.418 170.5 193.132C167.527 174.803 162.78 161.49 154.306 146.228C165.027 152.868 169.428 156.733 174.549 163.871C173.312 151.578 168.866 138.039 159.569 116.967C159.959 116.156 133.174 114.815 119.893 112.233C106.612 109.651 102.484 97.1724 119.893 98.8937C137.302 100.615 136.413 102.036 142.565 100.615C148.717 99.1935 151.472 94.5906 153.091 88.1359C154.711 81.6813 160.582 79.325 165.237 75.6569C167.595 70.6599 168.4 67.392 172.445 62.3174C175.228 60.7054 176.053 61.2396 181.352 61.4568Z" stroke="black" stroke-width="3"/>
<path d="M50.583 126.434C54.6341 88.0078 57.812 67.3561 69.2065 49.4084C68.4691 63.4097 64.6299 70.8125 65.9676 88.1364L76.4939 81.2514C70.767 94.5268 71.0982 101.971 76.4939 115.246L84.1862 107.5C84.1862 107.5 101.182 127.159 90.2591 151.822C88.8994 137.229 88.7328 130.429 81.7571 118.688C77.9457 126.78 75.7033 130.796 71.6356 137.622C71.7674 124.778 70.6664 117.555 65.9676 104.058C58.8495 113.161 56.0863 119.128 50.583 126.434Z" fill="#9B9797" stroke="black" stroke-opacity="0.2" stroke-width="2"/>
<path d="M159.93 89.6043C159.525 91.1483 163.244 92.8696 165.967 92.8696C166.661 90.0346 165.598 86.4149 164.03 86.4149C161.297 87.478 160.712 88.4361 159.93 89.6043Z" fill="#5E5858" stroke="black" stroke-width="2"/>
<path d="M105.239 45.5354C109.016 49.43 111.993 51.7369 117.385 55.8629C111.874 47.5742 112.744 48.1432 112.527 46.8263C116.355 51.8332 118.659 54.4721 123.863 58.0144L136.818 62.3175L135.199 64.469C131.15 68.3419 130.748 68.4932 127.101 70.9237C121.029 72.645 119.209 73.5436 112.527 71.7843C106.859 68.7722 105.006 66.1382 103.215 60.166C103.215 55.4532 103.215 54.1639 104.184 51.5598C101.933 51.1185 100.771 50.957 98.2338 50.2688L92.2837 48.9778C94.7965 48.0259 96.7756 47.7048 105.239 48.9778L93.7007 42.9536L87.0205 41.6626C90.0035 40.2337 92.7005 40.0962 100.381 41.6626C97.2344 39.9206 95.4625 38.7982 92.2837 36.4989C93.3729 36.5248 94.3161 36.427 100.381 40.802L102.405 39.5111C102.561 40.1547 102.681 40.5745 105.239 45.5354Z" fill="black"/>
<path d="M159.895 60.166C151.02 62.7762 145.96 63.1541 136.818 62.3175M136.818 62.3175C136.818 62.3175 128.922 59.6949 123.863 58.0144M136.818 62.3175L135.199 64.469C131.15 68.3419 130.748 68.4932 127.101 70.9237C121.029 72.645 119.209 73.5436 112.527 71.7843C106.859 68.7722 105.006 66.1382 103.215 60.166C103.215 55.4532 103.215 54.1639 104.184 51.5598M117.385 55.8629C111.993 51.7369 109.016 49.43 105.239 45.5354C102.681 40.5745 102.561 40.1547 102.405 39.5111L100.381 40.802C94.3161 36.427 93.3729 36.5248 92.2837 36.4989C95.4625 38.7982 97.2344 39.9206 100.381 41.6626C92.7005 40.0962 90.0035 40.2337 87.0205 41.6626L93.7007 42.9536M117.385 55.8629L100.381 44.2445L93.7007 42.9536M117.385 55.8629C117.385 55.8629 121.333 57.1742 123.863 58.0144M117.385 55.8629C111.874 47.5742 112.744 48.1432 112.527 46.8263C116.355 51.8332 118.659 54.4721 123.863 58.0144M93.7007 42.9536L105.239 48.9778M105.239 48.9778C96.7756 47.7048 94.7965 48.0259 92.2837 48.9778L98.2338 50.2688C100.771 50.957 101.933 51.1185 104.184 51.5598M105.239 48.9778C104.798 50.0084 104.454 50.835 104.184 51.5598" stroke="black" stroke-width="2"/>
<path d="M131.454 63.6086L106.353 51.9902C104.366 61.9005 106.353 67.9117 114.855 70.4936C121.809 71.5671 125.381 70.9239 131.454 63.6086Z" fill="#D9D9D9" stroke="black" stroke-width="2"/>
<path d="M123.084 59.7358L112.285 56.2933C110.784 58.808 110.051 58.9708 110.796 62.7958C112.285 66.2383 115.911 66.3139 119.732 66.6208C123.456 65.8558 123.965 63.341 123.084 59.7358Z" fill="#625C5C" stroke="black" stroke-width="3"/>
<path d="M114.188 62.2236C113.962 61.303 113.83 60.7951 114.188 59.7521C114.188 59.7521 115.003 58.6202 114.188 58.9283C113.373 59.2364 113.029 59.5819 112.931 60.9878C113.057 62.2236 114.062 63.9035 114.188 62.8414C114.216 62.6046 114.188 62.4648 114.188 62.2236Z" fill="#D9D9D9" stroke="#D9D9D9" stroke-width="2"/>
<path d="M137.627 138.483C137.627 132.028 123.053 119.549 116.17 113.094C136.008 116.106 138.842 116.106 158.68 117.828C169.206 140.204 171.231 148.38 172.85 159.568C166.777 152.252 156.884 147.261 150.988 142.786C161.919 160.859 166.777 177.641 168.802 189.259C166.372 186.677 157.465 175.92 151.393 171.616C154.766 179.287 157.059 183.189 160.299 192.271C163.374 202.233 164.074 207.226 164.753 213.787C160.164 207.764 157.061 203.029 153.012 196.144C139.458 184.78 134.1 180.013 131.959 171.186C127.926 154.699 137.627 144.937 137.627 138.483Z" fill="#625C5C" fill-opacity="0.61"/>
<path d="M70.0165 48.5476C67.1039 66.0567 65.3177 75.9139 66.3728 87.2755L77.304 79.9603C73.8172 86.748 72.4457 90.718 72.4457 99.3242C72.4457 107.93 74.8748 109.221 76.4942 115.246C79.3722 112.56 81.0925 110.863 84.5914 107.07C93.9298 124.13 98.1075 133.707 90.6643 150.961" stroke="#5B5757" stroke-width="4"/>
<path d="M162.089 31.4452C167.443 34.9091 169.28 37.859 172.729 41.7177V42.9262C169.449 44.9883 167.609 45.237 164.329 42.9262L162.089 39.9049L160.409 42.9262L142.489 30.2366C132.364 27.0322 117.384 19.2866 108.073 20.1472H100.38C102.207 21.4376 102.44 22.2571 114.55 22.2988L121.21 24.4503L131.554 28.7533C127.661 29.7298 121.838 27.8927 110.907 27.4624C118.057 32.1016 122.417 33.9703 133.579 30.2366L143.609 34.4665C145.487 35.667 147.098 36.7287 148.559 37.7399C149.376 38.3056 150.146 38.8555 150.889 39.405C153.534 41.3593 155.841 43.3086 158.729 45.9475H150.889C155.713 49.9093 158.642 51.2844 164.329 51.9902L180.542 58.8751C182.971 55.4327 183.657 55.1647 184.591 50.2689L176.089 39.9049C167.413 29.9159 163.402 26.8028 157.049 23.5897L162.089 31.4452Z" fill="#DCD6D6" fill-opacity="0.73" stroke="#E5E5E5" stroke-opacity="0.78" stroke-width="2"/>
<path d="M150.583 26.602L158.275 33.0567L147.344 26.602C143.137 24.6632 140.632 23.2347 137.223 23.1595L121.028 16.7049C126.104 15.7772 129.861 17.1087 139.37 20.4777L139.652 20.5777C149.368 24.0203 146.866 23.9192 150.583 26.602Z" fill="#E2DEDE" stroke="#E2DEDE" stroke-width="2"/>
<path d="M43.7002 146.228C44.0864 90.6243 55.0092 81.5463 67.182 50.2688C56.7776 77.8947 50.8371 95.1264 50.1779 129.016L65.1577 105.349C70.2887 118.447 71.4428 126.217 71.2306 140.634L82.1617 120.84C86.7324 130.396 88.6395 138.482 91.0686 153.543C87.02 167.743 85.346 167.369 82.1617 178.932C80.1374 160.859 77.9375 158.787 80.1374 140.634C75.9405 151.179 74.8497 151.533 66.7771 155.695C66.6492 142.765 65.7702 138.742 61.9188 127.294C53.5143 134.599 49.1336 136.892 43.7002 146.228Z" fill="#E5E5E5" fill-opacity="0.76" stroke="#E9E9E9" stroke-width="2"/>
</svg>
