<svg width="124" height="116" viewBox="0 0 1548 1608" fill="none" xmlns="http://www.w3.org/2000/svg">
	<path opacity="0.3" d="M67.8861 1088.49C224.285 1466.83 637.129 1629.33 960.599 1601.62C1048.92 1594.06 1226.62 1578.83 1365.37 1443.04C1631.84 1182.25 1590.8 637.141 1335.72 316.208C1302.87 274.879 1075.49 -2.02491 721.166 1.6814C461.748 4.39544 279.666 156.054 257.525 174.948C229.556 198.816 167.866 255.534 112.269 345.512C-18.3647 556.933 -29.8476 852.076 67.8861 1088.49Z" fill="url(#paint0_linear_2040_74)" />
	<g opacity="0.3">
		<path d="M378.231 139.864C376.164 142.329 372.563 142.584 370.192 140.437C365.583 136.265 360.732 132.238 355.771 128.469C353.261 126.562 352.692 122.923 354.473 120.292C354.494 120.261 354.515 120.23 354.536 120.198C356.394 117.56 359.959 116.987 362.5 118.917C367.721 122.884 372.829 127.122 377.68 131.515C379.899 133.523 380.257 136.925 378.601 139.372C378.488 139.541 378.365 139.706 378.231 139.864ZM330.416 111.845C325.01 108.815 319.428 105.997 313.82 103.466C310.936 102.165 309.611 98.6795 310.864 95.6812C312.133 92.6765 315.475 91.3093 318.362 92.612C324.262 95.2737 330.138 98.24 335.827 101.427C338.596 102.979 339.629 106.571 338.135 109.446C338.026 109.655 337.907 109.855 337.779 110.044C336.142 112.464 332.984 113.284 330.416 111.845ZM285.569 93.0805C279.666 91.3808 273.62 89.9276 267.595 88.7615C264.502 88.1628 262.462 85.0715 263.038 81.8587C263.618 78.65 266.59 76.5289 269.684 77.1259C276.028 78.3547 282.397 79.8852 288.612 81.675C291.644 82.5481 293.421 85.8092 292.582 88.9586C292.402 89.63 292.118 90.2421 291.754 90.7809C290.408 92.7713 287.955 93.7676 285.569 93.0805ZM237.808 85.2046C231.68 84.9181 225.471 84.9059 219.349 85.1651C216.205 85.2971 213.552 82.758 213.424 79.4929C213.299 76.2278 215.744 73.4742 218.885 73.3387C225.331 73.0667 231.869 73.0806 238.317 73.3794C241.46 73.5265 243.895 76.2917 243.754 79.5568C243.703 80.7252 243.33 81.7989 242.728 82.69C241.646 84.2891 239.826 85.2976 237.808 85.2046ZM189.548 88.5773C183.527 89.7091 177.466 91.1245 171.538 92.787C168.499 93.6374 165.372 91.7691 164.552 88.6139C163.732 85.4563 165.532 82.2087 168.571 81.36C174.808 79.6114 181.185 78.1222 187.52 76.9317C190.615 76.3487 193.58 78.4843 194.14 81.7012C194.423 83.3218 194.041 84.9076 193.196 86.1568C192.364 87.3862 191.084 88.2884 189.548 88.5773ZM143.21 102.956C137.57 105.446 131.966 108.219 126.548 111.198C123.767 112.726 120.317 111.624 118.847 108.737C117.374 105.848 118.433 102.267 121.215 100.737C126.916 97.6012 132.818 94.6831 138.752 92.0627C141.649 90.785 144.993 92.1859 146.225 95.1941C147.025 97.1478 146.734 99.298 145.64 100.916C145.049 101.79 144.226 102.508 143.21 102.956ZM8.78502 272.66C5.69294 272.056 3.65692 268.963 4.23896 265.75C5.43157 259.17 6.91801 252.555 8.65573 246.09C9.50192 242.941 12.6449 241.101 15.676 241.982C18.7054 242.859 20.4767 246.124 19.6311 249.272C17.9812 255.41 16.5709 261.691 15.4393 267.94C15.2837 268.797 14.9585 269.575 14.5052 270.246C13.2589 272.086 11.0522 273.104 8.78502 272.66ZM101.119 127.632C96.1562 131.36 91.2895 135.357 86.6544 139.515C84.2714 141.651 80.6729 141.376 78.6173 138.903C76.56 136.428 76.8359 132.702 79.2077 130.556C84.0895 126.179 89.2148 121.968 94.4409 118.043C96.9906 116.128 100.552 116.722 102.397 119.371C103.86 121.471 103.802 124.233 102.443 126.242C102.09 126.763 101.645 127.235 101.119 127.632ZM22.1847 222.996C19.302 221.689 17.9851 218.199 19.2444 215.203C21.8249 209.069 24.6954 202.969 27.7712 197.071C29.2593 194.188 32.7291 193.132 35.4955 194.688C38.2613 196.244 39.2883 199.837 37.7901 202.711C34.8665 208.316 32.1382 214.113 29.6869 219.943C29.5308 220.315 29.3399 220.66 29.1239 220.98C27.5994 223.236 24.7093 224.142 22.1847 222.996ZM65.3988 161.452C61.3677 166.237 57.4814 171.265 53.8499 176.4C51.9879 179.035 48.4224 179.602 45.8849 177.666C43.3821 175.757 42.818 172.124 44.5955 169.497C44.6184 169.463 44.6419 169.428 44.6671 169.395C48.4884 163.988 52.5789 158.694 56.8211 153.657C58.8951 151.199 62.4943 150.949 64.8621 153.102C67.0739 155.111 67.4287 158.508 65.7755 160.951C65.6602 161.123 65.5332 161.29 65.3988 161.452Z" fill="url(#paint1_linear_2040_74)" />
		<path d="M10.6927 311.611C11.3374 310.658 11.7202 309.497 11.7258 308.243C11.7392 305.192 11.8159 302.091 11.9491 299.023C12.0929 295.759 9.6601 292.991 6.51766 292.842C3.37409 292.692 0.705101 295.218 0.567427 298.485C0.425275 301.711 0.345815 304.973 0.330145 308.184C0.315035 311.452 2.85362 314.116 5.99886 314.131C7.93917 314.141 9.65618 313.143 10.6927 311.611Z" fill="url(#paint2_linear_2040_74)" />
	</g>
	<g opacity="0.3">
		<path d="M77.7444 478.052C79.3254 475.716 79.0853 472.468 77.051 470.413C74.945 468.286 72.8458 466.078 70.8148 463.849C68.6506 461.476 65.0442 461.373 62.7597 463.621C60.4657 465.878 60.3773 469.615 62.5398 471.987C64.6793 474.333 66.8894 476.659 69.1062 478.899C71.3621 481.177 74.9696 481.124 77.1635 478.781C77.3795 478.552 77.5726 478.307 77.7444 478.052Z" fill="url(#paint3_linear_2040_74)" />
		<path d="M407.329 455.003C405.397 457.582 401.816 458.045 399.332 456.036C396.85 454.027 396.407 450.316 398.337 447.731C402.018 442.821 405.553 437.672 408.89 432.37C410.594 429.641 414.144 428.866 416.777 430.654C419.411 432.442 420.15 436.11 418.43 438.846C416.984 441.144 415.508 443.407 414 445.635C411.85 448.814 409.606 451.966 407.329 455.003ZM426.025 413.524C423.184 412.123 421.973 408.593 423.323 405.641C425.912 399.971 428.301 394.129 430.419 388.272C431.515 385.213 434.81 383.664 437.756 384.813C440.701 385.961 442.192 389.374 441.085 392.433C438.856 398.599 436.343 404.75 433.615 410.715C433.474 411.024 433.31 411.315 433.127 411.586C431.56 413.902 428.571 414.779 426.025 413.524ZM386.623 479.032C382.081 483.625 377.288 488.081 372.375 492.271C369.943 494.346 366.353 493.979 364.355 491.453C362.358 488.928 362.713 485.202 365.142 483.124C369.809 479.145 374.359 474.915 378.671 470.552C380.926 468.272 384.533 468.321 386.73 470.663C388.671 472.734 388.857 475.906 387.313 478.189C387.111 478.486 386.882 478.769 386.623 479.032ZM443.174 365.997C440.105 365.278 438.177 362.11 438.87 358.922C440.198 352.811 441.288 346.567 442.113 340.366C442.542 337.126 445.417 334.866 448.536 335.314C451.653 335.761 453.83 338.748 453.4 341.985C452.531 348.516 451.382 355.091 449.985 361.526C449.816 362.303 449.508 363.011 449.093 363.626C447.805 365.529 445.494 366.54 443.174 365.997ZM347.102 510.963C341.703 514.405 336.085 517.654 330.406 520.621C327.595 522.09 324.171 520.915 322.756 517.996C321.34 515.075 322.474 511.518 325.285 510.049C330.679 507.229 336.015 504.144 341.143 500.875C343.825 499.166 347.334 500.039 348.979 502.825C350.206 504.901 350.051 507.453 348.785 509.325C348.351 509.965 347.786 510.528 347.102 510.963ZM301.798 533.118C295.79 535.255 289.625 537.154 283.475 538.762C280.423 539.558 277.328 537.637 276.559 534.467C275.79 531.292 277.642 528.078 280.694 527.284C286.537 525.756 292.396 523.952 298.105 521.921C301.083 520.862 304.322 522.51 305.342 525.603C305.956 527.466 305.623 529.429 304.611 530.926C303.943 531.913 302.98 532.697 301.798 533.118ZM252.92 544.492C246.604 545.22 240.186 545.679 233.851 545.857C230.704 545.945 228.087 543.368 228 540.102C227.915 536.83 230.397 534.114 233.542 534.026C239.563 533.858 245.659 533.421 251.663 532.728C254.79 532.368 257.607 534.709 257.954 537.957C258.114 539.45 257.725 540.872 256.955 542.011C256.047 543.351 254.611 544.297 252.92 544.492ZM202.818 544.521C196.502 543.797 190.142 542.785 183.915 541.51C180.828 540.879 178.817 537.768 179.426 534.56C180.033 531.359 183.031 529.268 186.118 529.899C192.03 531.109 198.068 532.07 204.069 532.757C207.197 533.116 209.452 536.039 209.107 539.288C208.997 540.314 208.642 541.248 208.109 542.037C206.952 543.745 204.959 544.765 202.818 544.521ZM153.908 533.108C147.915 530.962 141.932 528.52 136.121 525.85C133.243 524.528 131.941 521.032 133.215 518.044C134.485 515.065 137.852 513.703 140.73 515.026C146.249 517.562 151.933 519.881 157.625 521.921C160.599 522.985 162.179 526.355 161.152 529.444C160.974 529.982 160.729 530.477 160.429 530.92C159.007 533.022 156.365 533.988 153.908 533.108ZM108.652 510.841C104.674 508.3 100.721 505.598 96.9059 502.813C95.5235 501.805 94.158 500.784 92.8042 499.749C90.2707 497.813 89.6545 494.104 91.5926 491.477C93.4556 488.844 97.0229 488.279 99.5587 490.216C100.845 491.199 102.145 492.172 103.458 493.13C107.085 495.777 110.84 498.344 114.623 500.762C117.304 502.474 118.139 506.119 116.49 508.902C116.428 509.006 116.364 509.109 116.297 509.209C114.579 511.748 111.231 512.491 108.652 510.841Z" fill="url(#paint4_linear_2040_74)" />
		<path d="M454.494 313.049C455.145 312.086 455.528 310.914 455.528 309.65C455.528 306.446 455.462 303.182 455.333 299.947C455.203 296.681 452.549 294.143 449.405 294.279C446.261 294.415 443.817 297.167 443.947 300.436C444.069 303.508 444.132 306.609 444.133 309.651C444.132 312.918 446.682 315.568 449.829 315.568C451.759 315.567 453.464 314.571 454.494 313.049Z" fill="url(#paint5_linear_2040_74)" />
	</g>
	<path d="M385.49 241.246C385.183 240.109 384.216 239.301 383.082 239.233L350.726 237.273C343.417 223.506 333.943 210.851 322.458 199.921L328.242 166.82C328.445 165.658 327.916 164.492 326.925 163.914L293.026 144.147C292.036 143.569 290.801 143.708 289.953 144.492L265.755 166.856C250.792 162.362 235.455 160.549 220.334 161.237L201.877 133.566C201.23 132.596 200.061 132.159 198.968 132.478L161.54 143.397C160.446 143.716 159.667 144.721 159.602 145.9L157.716 179.506C144.461 187.097 132.276 196.938 121.754 208.867L89.885 202.86C88.7668 202.649 87.6436 203.198 87.0873 204.227L68.0546 239.437C67.4989 240.467 67.6327 241.749 68.3876 242.63L89.9191 267.763C85.5919 283.305 83.8474 299.234 84.5101 314.94L57.8684 334.111C56.9349 334.783 56.5135 335.996 56.8213 337.133L67.3338 376.008C67.641 377.143 68.6087 377.952 69.742 378.021L102.099 379.98C109.406 393.747 118.881 406.403 130.366 417.332L124.583 450.434C124.38 451.594 124.909 452.762 125.899 453.34L159.799 473.107C160.79 473.685 162.024 473.546 162.873 472.762L187.07 450.398C202.034 454.892 217.37 456.705 232.491 456.017L250.948 483.688C251.595 484.658 252.763 485.095 253.857 484.776L291.285 473.857C292.379 473.538 293.157 472.533 293.223 471.355L295.109 437.748C308.364 430.158 320.548 420.317 331.071 408.388L362.941 414.395C364.058 414.605 365.182 414.057 365.738 413.027L384.77 377.817C385.325 376.788 385.193 375.506 384.437 374.625L362.906 349.492C367.233 333.95 368.977 318.021 368.315 302.315L394.957 283.144C395.891 282.472 396.311 281.258 396.004 280.123L385.49 241.246Z" fill="url(#paint6_linear_2040_74)" />
	<path opacity="0.56" d="M254.767 336.556C239.94 352.795 215.159 353.48 199.522 338.079C191.947 330.619 187.623 320.541 187.347 309.704C187.07 298.868 190.871 288.566 198.056 280.7C212.884 264.46 237.664 263.776 253.302 279.177C267.526 293.187 269.354 315.756 258.402 331.944C257.316 333.548 256.103 335.091 254.767 336.556ZM196.46 309.453C196.673 317.763 199.987 325.489 205.796 331.21C217.783 343.015 236.785 342.493 248.152 330.041C259.527 317.59 259.015 297.854 247.027 286.045C235.04 274.24 216.038 274.762 204.671 287.214C203.64 288.343 202.702 289.536 201.857 290.786C198.183 296.215 196.288 302.699 196.46 309.453Z" fill="white" />
	<path opacity="0.56" d="M304.123 366.323C306.004 363.543 307.762 360.648 309.385 357.645C309.897 356.701 310.393 355.746 310.875 354.784C313.25 350.04 315.257 345.107 316.866 340.062C316.888 339.993 316.91 339.925 316.932 339.856C316.994 339.661 317.055 339.465 317.115 339.269C317.234 338.888 317.348 338.506 317.462 338.124C317.761 337.119 317.384 336.065 316.598 335.489C316.406 335.35 316.191 335.239 315.956 335.163C314.753 334.777 313.48 335.481 313.108 336.728C311.199 343.156 308.609 349.413 305.411 355.326C289.537 384.704 260.777 401.932 230.571 403.688C213.77 404.666 196.521 400.855 180.792 391.682C178.034 390.074 175.374 388.333 172.821 386.469C155.64 373.925 143.238 355.778 137.483 334.495C130.871 310.047 133.822 284.389 145.79 262.247C170.512 216.521 226.403 200.229 270.408 225.891C273.122 227.473 275.748 229.192 278.277 231.039C289.236 239.04 298.388 249.444 305.04 261.536C305.213 261.848 305.441 262.104 305.708 262.297C306.407 262.808 307.357 262.887 308.149 262.416C309.24 261.764 309.625 260.323 308.997 259.185C302.012 246.49 292.405 235.566 280.899 227.166C278.245 225.227 275.488 223.423 272.641 221.762C226.439 194.819 167.746 211.957 141.815 259.927C129.25 283.173 126.154 310.108 133.094 335.774C139.135 358.117 152.156 377.169 170.193 390.338C172.873 392.294 175.665 394.121 178.559 395.81C200.941 408.86 226.874 412.078 251.583 404.869C273.1 398.594 291.445 385.064 304.123 366.323Z" fill="white" />
	<g opacity="0.3">
		<path d="M613.24 63.8036C614.115 62.5097 614.109 60.7251 613.11 59.4253C611.249 56.9985 609.291 54.5966 607.292 52.2883C605.992 50.7879 603.769 50.6659 602.322 52.0162C600.87 53.3625 600.76 55.6777 602.06 57.1781C603.966 59.3777 605.831 61.6668 607.608 63.9826C608.817 65.5603 611.032 65.8201 612.553 64.5639C612.823 64.3396 613.05 64.0826 613.24 63.8036Z" fill="url(#paint7_linear_2040_74)" />
		<path d="M594.277 43.8091C593.003 45.3326 590.782 45.4983 589.313 44.1752C585.606 40.8392 581.691 37.6613 577.678 34.7328C576.832 34.1149 575.976 33.5057 575.111 32.9029C573.499 31.7769 573.07 29.5064 574.153 27.8305C575.238 26.2884 577.423 25.7106 579.039 26.8354C579.943 27.4672 580.839 28.1055 581.724 28.7519C585.93 31.8217 590.035 35.1536 593.922 38.6536C595.298 39.8912 595.523 41.9972 594.498 43.5132C594.431 43.6132 594.356 43.7114 594.277 43.8091ZM559.697 23.5086C554.393 20.7132 548.876 18.2329 543.298 16.1408C541.47 15.4537 540.525 13.3616 541.184 11.4614C541.844 9.57394 543.861 8.57878 545.69 9.26587C551.536 11.4585 557.32 14.0574 562.881 16.9901C564.614 17.9038 565.306 20.104 564.427 21.9054C564.35 22.063 564.26 22.2135 564.164 22.3548C563.175 23.8179 561.276 24.3405 559.697 23.5086ZM526.143 10.9353C520.35 9.57627 514.416 8.58227 508.499 7.97831C506.567 7.78067 505.152 5.99146 505.342 3.98368C505.534 1.96834 507.251 0.50408 509.188 0.702301C515.392 1.33416 521.618 2.38048 527.691 3.80289C529.587 4.24816 530.779 6.20479 530.35 8.17362C530.244 8.65261 530.054 9.08972 529.797 9.46931C529.002 10.6447 527.575 11.2696 526.143 10.9353ZM490.639 7.30866C484.694 7.46677 478.702 8.01085 472.84 8.92639C470.916 9.22517 469.125 7.85042 468.837 5.85426C468.551 3.86276 469.871 1.998 471.793 1.69689C477.944 0.737758 484.222 0.167499 490.459 0.00125012C492.401 -0.051066 494.018 1.54517 494.068 3.56283C494.085 4.37605 493.849 5.13462 493.43 5.7537C492.811 6.66865 491.799 7.27785 490.639 7.30866ZM455.359 12.7955C449.632 14.4504 443.952 16.4884 438.471 18.8531C436.678 19.6279 434.618 18.7438 433.872 16.8796C433.125 15.0154 433.973 12.8745 435.772 12.1026C441.515 9.62337 447.471 7.48769 453.472 5.75137C455.344 5.21194 457.285 6.34894 457.805 8.2922C458.1 9.39084 457.879 10.5121 457.294 11.3765C456.842 12.0433 456.174 12.5589 455.359 12.7955ZM422.43 27.0109C417.268 30.0598 412.242 33.472 407.49 37.1562C405.935 38.363 403.728 38.0304 402.567 36.4133C401.405 34.7956 401.723 32.5128 403.281 31.2962C408.264 27.4335 413.537 23.8533 418.953 20.6551C420.643 19.6593 422.791 20.2714 423.75 22.0252C424.444 23.2953 424.327 24.816 423.57 25.9355C423.28 26.3639 422.899 26.7354 422.43 27.0109ZM393.861 49.15C389.59 53.4079 385.52 58.0018 381.765 62.8068C380.539 64.3722 378.323 64.6111 376.815 63.3381C375.306 62.0674 375.098 59.7858 376.301 58.1948C380.24 53.1609 384.507 48.3437 388.986 43.8776C390.389 42.4802 392.617 42.5273 393.963 43.9834C395.147 45.2634 395.253 47.2108 394.305 48.6128C394.176 48.8018 394.029 48.9825 393.861 49.15ZM358.161 95.9839C356.399 95.13 355.639 92.9566 356.461 91.1267C358.736 86.0625 361.319 81.0413 364.126 76.2148C364.549 75.4783 364.981 74.7535 365.417 74.0286C366.396 72.2958 368.621 71.7999 370.27 72.8782C371.917 73.9513 372.411 76.2061 371.379 77.9174C370.968 78.5947 370.564 79.2788 370.16 79.981C367.471 84.6 365.008 89.3898 362.838 94.2186C362.749 94.4179 362.644 94.6051 362.527 94.7772C361.564 96.2008 359.73 96.7448 358.161 95.9839Z" fill="url(#paint8_linear_2040_74)" />
	</g>
	<g opacity="0.3">
		<path d="M617.352 250.383C613.761 255.548 609.834 260.528 605.685 265.19C604.364 266.669 602.139 266.762 600.711 265.39C599.283 264.018 599.22 261.708 600.518 260.224C604.478 255.78 608.221 251.028 611.648 246.102C612.784 244.465 614.986 244.097 616.56 245.279C618.123 246.452 618.486 248.71 617.381 250.342C617.371 250.356 617.361 250.37 617.352 250.383ZM622.443 235.644C620.744 234.667 620.128 232.442 621.069 230.677C623.9 225.364 626.449 219.819 628.645 214.196C629.377 212.339 631.428 211.424 633.231 212.186C635.032 212.944 635.897 215.074 635.169 216.946C632.866 222.839 630.195 228.65 627.227 234.217C627.164 234.334 627.097 234.445 627.025 234.553C626.005 236.06 624.034 236.558 622.443 235.644ZM592.359 278.423C587.671 282.535 582.701 286.385 577.587 289.865C575.961 290.97 573.778 290.498 572.715 288.81C571.648 287.122 572.103 284.865 573.727 283.749C578.606 280.431 583.346 276.759 587.821 272.838C589.307 271.536 591.526 271.731 592.778 273.271C593.832 274.569 593.867 276.404 592.97 277.73C592.801 277.981 592.597 278.214 592.359 278.423ZM636.726 201.37C634.85 200.846 633.738 198.839 634.241 196.891C635.759 191.027 636.944 185.01 637.763 179.003C638.037 177.007 639.819 175.616 641.738 175.895C643.664 176.179 645.004 178.028 644.731 180.027C643.875 186.328 642.632 192.641 641.038 198.79C640.927 199.215 640.749 199.602 640.519 199.942C639.694 201.161 638.193 201.779 636.726 201.37ZM561.595 299.35C556.104 302.164 550.39 304.656 544.609 306.763C542.775 307.431 540.766 306.427 540.122 304.523C539.479 302.618 540.441 300.53 542.279 299.863C547.795 297.857 553.243 295.478 558.479 292.792C560.221 291.9 562.332 292.642 563.192 294.455C563.782 295.694 563.63 297.117 562.914 298.175C562.587 298.658 562.141 299.069 561.595 299.35ZM526.889 312.002C520.897 313.37 514.772 314.372 508.685 314.982C506.751 315.176 505.033 313.706 504.847 311.697C504.659 309.69 506.075 307.901 508.012 307.707C513.816 307.125 519.659 306.168 525.377 304.862C527.275 304.428 529.153 305.676 529.57 307.648C529.79 308.689 529.56 309.725 529.011 310.535C528.523 311.256 527.783 311.798 526.889 312.002ZM490.262 315.66C484.125 315.5 477.944 314.945 471.894 314.016C469.97 313.719 468.644 311.861 468.928 309.863C469.212 307.867 471.004 306.49 472.923 306.783C478.693 307.671 484.586 308.199 490.437 308.349C492.38 308.4 493.916 310.077 493.866 312.095C493.85 312.845 493.615 313.533 493.23 314.102C492.577 315.069 491.485 315.691 490.262 315.66Z" fill="url(#paint9_linear_2040_74)" />
		<path d="M645.566 162.802C645.956 162.226 646.19 161.526 646.203 160.768C646.257 157.64 646.22 154.496 646.099 151.423C646.018 149.407 644.379 147.838 642.437 147.921C640.499 148.01 638.989 149.709 639.065 151.725C639.183 154.655 639.216 157.655 639.167 160.64C639.132 162.659 640.682 164.323 642.624 164.358C643.835 164.379 644.916 163.761 645.566 162.802Z" fill="url(#paint10_linear_2040_74)" />
	</g>
	<path d="M599.653 112.129C599.447 111.369 598.8 110.828 598.041 110.782L576.39 109.47C571.5 100.258 565.16 91.7898 557.475 84.4766L561.345 62.3265C561.481 61.5494 561.127 60.7692 560.464 60.3821L537.78 47.1548C537.118 46.7677 536.291 46.8607 535.724 47.385L519.532 62.3503C509.519 59.3428 499.257 58.1302 489.138 58.5906L476.787 40.0742C476.354 39.4249 475.572 39.133 474.841 39.3464L449.796 46.6532C449.064 46.8665 448.543 47.5391 448.499 48.3273L447.236 70.8151C438.367 75.8944 430.214 82.4793 423.173 90.4622L401.847 86.4425C401.099 86.3019 400.347 86.6687 399.975 87.3575L387.24 110.918C386.867 111.607 386.958 112.465 387.462 113.055L401.871 129.872C398.975 140.272 397.807 150.932 398.251 161.441L380.424 174.27C379.799 174.719 379.517 175.531 379.723 176.291L386.758 202.305C386.963 203.065 387.611 203.606 388.369 203.652L410.021 204.964C414.91 214.176 421.25 222.645 428.936 229.958L425.066 252.108C424.93 252.885 425.284 253.665 425.947 254.052L448.631 267.28C449.293 267.667 450.119 267.574 450.687 267.049L466.879 252.083C476.891 255.091 487.154 256.303 497.272 255.843L509.623 274.359C510.055 275.009 510.837 275.3 511.569 275.087L536.614 267.78C537.346 267.567 537.867 266.894 537.911 266.106L539.173 243.618C548.043 238.538 556.196 231.954 563.237 223.971L584.563 227.99C585.311 228.131 586.062 227.764 586.435 227.075L599.17 203.514C599.542 202.826 599.452 201.968 598.947 201.378L584.539 184.56C587.435 174.16 588.602 163.501 588.159 152.992L605.986 140.163C606.611 139.714 606.892 138.901 606.687 138.141L599.653 112.129Z" fill="url(#paint11_linear_2040_74)" />
	<path opacity="0.56" d="M512.521 176.239C507.629 181.601 501.019 184.66 493.911 184.855C486.805 185.052 480.049 182.362 474.89 177.278C464.24 166.79 463.796 149.286 473.89 138.191C483.993 127.13 500.873 126.666 511.519 137.154C516.679 142.235 519.625 149.1 519.814 156.482C519.967 162.482 518.283 168.243 515.019 173.067C514.27 174.176 513.435 175.237 512.521 176.239ZM479.731 171.973C483.527 175.712 488.496 177.692 493.726 177.548C498.952 177.403 503.815 175.152 507.413 171.211C511.007 167.264 512.917 162.107 512.778 156.675C512.641 151.246 510.471 146.197 506.678 142.46C498.844 134.744 486.428 135.085 478.997 143.22C478.327 143.955 477.721 144.727 477.176 145.532C471.689 153.644 472.605 164.955 479.731 171.973Z" fill="white" />
	<path opacity="0.56" d="M546.874 196.957C548.154 195.065 549.351 193.09 550.466 191.033C552.676 186.946 554.489 182.622 555.855 178.168C555.915 177.968 555.975 177.767 556.036 177.567C556.498 176.015 555.914 174.388 554.701 173.499C554.406 173.284 554.072 173.113 553.71 172.997C551.853 172.401 549.89 173.49 549.311 175.412C548.074 179.583 546.396 183.632 544.33 187.451L544.329 187.453C544.216 187.663 544.099 187.872 543.985 188.079C539.015 197.07 532.075 204.434 523.792 209.725C519.296 212.596 514.399 214.855 509.201 216.425C509.158 216.438 509.116 216.45 509.074 216.463C508.943 216.501 508.816 216.54 508.686 216.577C493.449 221.021 477.457 219.038 463.656 210.99C461.869 209.95 460.149 208.823 458.496 207.617C447.373 199.496 439.345 187.747 435.617 173.968C431.338 158.141 433.25 141.532 440.998 127.2C448.745 112.878 461.405 102.523 476.641 98.0758C491.878 93.6319 507.871 95.6146 521.671 103.663C523.428 104.685 525.127 105.799 526.764 106.993C533.86 112.175 539.783 118.908 544.089 126.736C544.355 127.219 544.709 127.614 545.121 127.912C546.2 128.701 547.668 128.823 548.89 128.096C550.575 127.09 551.165 124.863 550.199 123.107C545.38 114.348 538.751 106.812 530.816 101.016C528.983 99.6779 527.083 98.4327 525.119 97.2876C509.676 88.2834 491.785 86.064 474.736 91.0382C457.691 96.0128 443.523 107.568 434.86 123.619C426.191 139.656 424.053 158.238 428.844 175.945C433.011 191.361 441.994 204.505 454.438 213.589C456.286 214.937 458.212 216.2 460.209 217.364C490.102 234.794 527.572 225.488 546.874 196.957Z" fill="white" />
	<path d="M1078.67 121.824V1575.2C1078.67 1584.8 1074.93 1593.47 1068.56 1598.81C1063.73 1602.88 1057.63 1605.47 1050.91 1605.21L1035.59 1604.62C1020.1 1604.01 1006.12 1589.29 1006.12 1572.47V124.286L1078.67 121.824Z" fill="url(#paint12_linear_2040_74)" />
	<path d="M1107.84 69.6844C1107.84 94.2108 1095.84 116.166 1077.77 129.079C1067.6 136.354 1055.51 140.751 1042.58 141.153C1036.16 141.352 1029.94 140.563 1024.09 138.888C1019.68 137.638 1015.48 135.893 1011.52 133.714C1010.52 133.148 1009.52 132.582 1008.54 131.952C990.053 120.392 977.766 99.0268 977.766 74.1999C977.766 36.0864 1006.74 4.10091 1042.58 2.72558C1078.55 1.34443 1107.84 31.3082 1107.84 69.6844Z" fill="url(#paint13_linear_2040_74)" />
	<path opacity="0.3" d="M1077.96 67.1685C1077.96 86.2372 1068.63 103.307 1054.58 113.346C1046.68 119.002 1037.28 122.421 1027.22 122.734C1022.23 122.889 1017.4 122.275 1012.85 120.973C1009.42 120.001 1006.15 118.644 1003.07 116.95C1002.29 116.51 1001.52 116.07 1000.75 115.58C986.385 106.592 976.832 89.9818 976.832 70.6795C976.832 41.0476 999.355 16.1795 1027.22 15.1099C1055.19 14.0362 1077.96 37.3315 1077.96 67.1685Z" fill="url(#paint14_linear_2040_74)" />
	<path d="M554.315 173.759L559.885 176.75L665.416 109.543L1182.23 188.897L1254.52 197.488L1250.25 211.504C1249.68 213.012 1167.43 275.26 1167.43 275.26L1231.44 362.521L1228.36 371.495C1228 372.56 1227 373.206 1225.97 373.041L1159.51 362.348L642.401 279.146C640.954 278.913 639.62 278.185 638.592 277.067L555.432 186.642C554.342 185.457 553.772 183.819 553.863 182.133L554.315 173.759Z" fill="url(#paint15_linear_2040_74)" />
	<path d="M671.248 103.642L1254.52 197.49C1255.06 197.577 1255.22 198.339 1254.77 198.682L1172.58 261.131C1171.46 261.977 1171.16 263.625 1171.91 264.84L1230.69 361.278C1230.98 361.754 1230.6 362.385 1230.08 362.302L646.44 268.395C644.776 268.127 643.237 267.305 642.035 266.04L555.051 174.536C554.683 174.149 554.767 173.482 555.217 173.203L665.988 104.721C667.588 103.731 669.441 103.351 671.248 103.642Z" fill="url(#paint16_linear_2040_74)" />
	<path d="M605.053 740.296L610.97 741.799L695.747 653.016L1201.11 604.931L1268.56 596.179C1269.96 595.997 1271.18 597.175 1271.1 598.639L1270.52 610.094C1270.31 611.66 1206.21 690.219 1206.21 690.219L1285.9 757.568L1284.97 766.798C1284.86 767.893 1284.06 768.745 1283.05 768.834L1217.96 774.554L711.469 819.066C710.052 819.19 708.631 818.819 707.414 818.006L608.951 752.226C607.66 751.364 606.76 749.949 606.474 748.332L605.053 740.296Z" fill="url(#paint17_linear_2040_74)" />
	<path d="M699.949 646.036L1269.55 595.978C1270.72 595.875 1271.42 597.29 1270.67 598.222L1207.95 675.608C1207.09 676.667 1207.17 678.322 1208.13 679.286L1284.94 756.598C1285.31 756.976 1285.08 757.638 1284.56 757.684L712.908 807.923C711.277 808.066 709.643 807.654 708.229 806.743L605.921 740.854C605.478 740.569 605.41 739.93 605.781 739.551L695.222 648.311C696.514 646.993 698.179 646.191 699.949 646.036Z" fill="url(#paint18_linear_2040_74)" />
	<path opacity="0.56" d="M1038.24 683.425L720.772 709.199C719.596 709.295 718.558 708.373 718.467 707.151L717.325 691.981C717.233 690.759 718.12 689.681 719.297 689.586L1036.76 663.811C1037.94 663.716 1038.98 664.638 1039.07 665.859L1040.21 681.03C1040.3 682.252 1039.42 683.33 1038.24 683.425Z" fill="white" />
	<path opacity="0.56" d="M1038.46 735.47L723.533 761.038C722.357 761.134 721.319 760.212 721.227 758.99L720.162 744.834C720.07 743.612 720.957 742.534 722.133 742.439L1037.07 716.87C1038.24 716.775 1039.28 717.696 1039.37 718.918L1040.44 733.075C1040.53 734.296 1039.64 735.374 1038.46 735.47Z" fill="white" />
	<path d="M1524.54 443.777L1518.4 446.314L1412.01 374.777L858.328 418.904L781.23 423.475L784.377 436.003C784.868 437.495 867.096 503.231 867.096 503.231L792.326 583.47L794.869 592.329C795.171 593.38 796.182 594.069 797.284 593.973L868.523 587.827L1422.83 540.004C1424.38 539.87 1425.85 539.251 1427.03 538.236L1522.33 456.146C1523.58 455.07 1524.31 453.523 1524.35 451.89L1524.54 443.777Z" fill="url(#paint19_linear_2040_74)" />
	<path d="M1406.31 368.712L782.382 422.543C781.356 422.631 780.972 423.986 781.789 424.639L862.778 489.265C863.878 490.144 864.063 491.777 863.187 492.896L793.251 582.29C792.904 582.734 793.239 583.394 793.788 583.347L1419.41 529.37C1421.19 529.216 1422.89 528.519 1424.26 527.373L1523.7 444.479C1524.11 444.136 1524.08 443.475 1523.63 443.184L1411.79 370.086C1410.18 369.028 1408.25 368.545 1406.31 368.712Z" fill="url(#paint20_linear_2040_74)" />
	<path opacity="0.56" d="M1397.62 431.808L1087.54 456.982C1086.37 457.077 1085.33 456.156 1085.24 454.934L1084.05 439.154C1083.96 437.932 1084.85 436.854 1086.02 436.759L1396.1 411.585C1397.27 411.49 1398.31 412.411 1398.4 413.633L1399.59 429.413C1399.68 430.634 1398.8 431.713 1397.62 431.808Z" fill="white" />
	<path opacity="0.56" d="M1398.05 485.454L1090.45 510.427C1089.28 510.522 1088.24 509.601 1088.15 508.379L1087.04 493.644C1086.95 492.422 1087.83 491.344 1089.01 491.249L1396.61 466.276C1397.78 466.181 1398.82 467.102 1398.91 468.324L1400.02 483.059C1400.11 484.28 1399.23 485.358 1398.05 485.454Z" fill="white" />
	<path d="M1042.27 273.804C1054.5 273.804 1064.42 263.503 1064.42 250.797C1064.42 238.09 1054.5 227.789 1042.27 227.789C1030.03 227.789 1020.11 238.09 1020.11 250.797C1020.11 263.503 1030.03 273.804 1042.27 273.804Z" fill="url(#paint21_linear_2040_74)" />
	<path d="M1043.78 261.256C1051.28 261.256 1057.37 254.935 1057.37 247.138C1057.37 239.341 1051.28 233.02 1043.78 233.02C1036.27 233.02 1030.18 239.341 1030.18 247.138C1030.18 254.935 1036.27 261.256 1043.78 261.256Z" fill="url(#paint22_linear_2040_74)" />
	<path d="M1038.76 506.649C1050.54 506.649 1060.09 496.728 1060.09 484.489C1060.09 472.25 1050.54 462.328 1038.76 462.328C1026.97 462.328 1017.42 472.25 1017.42 484.489C1017.42 496.728 1026.97 506.649 1038.76 506.649Z" fill="url(#paint23_linear_2040_74)" />
	<path d="M1040.21 494.561C1047.44 494.561 1053.3 488.472 1053.3 480.962C1053.3 473.452 1047.44 467.363 1040.21 467.363C1032.98 467.363 1027.12 473.452 1027.12 480.962C1027.12 488.472 1032.98 494.561 1040.21 494.561Z" fill="url(#paint24_linear_2040_74)" />
	<path d="M1040.07 717.113C1052.31 717.113 1062.23 706.806 1062.23 694.092C1062.23 681.377 1052.31 671.07 1040.07 671.07C1027.83 671.07 1017.9 681.377 1017.9 694.092C1017.9 706.806 1027.83 717.113 1040.07 717.113Z" fill="url(#paint25_linear_2040_74)" />
	<path d="M1041.58 704.558C1049.09 704.558 1055.18 698.233 1055.18 690.431C1055.18 682.629 1049.09 676.305 1041.58 676.305C1034.07 676.305 1027.98 682.629 1027.98 690.431C1027.98 698.233 1034.07 704.558 1041.58 704.558Z" fill="url(#paint26_linear_2040_74)" />
	<path opacity="0.56" d="M975.929 214.429L692.182 167.925C691.016 167.734 690.213 166.588 690.397 165.377L692.543 151.252C692.727 150.041 693.831 149.207 694.997 149.398L978.743 195.902C979.908 196.093 980.712 197.239 980.528 198.45L978.382 212.575C978.198 213.785 977.094 214.619 975.929 214.429Z" fill="white" />
	<path opacity="0.56" d="M965.219 262.77L683.743 216.639C682.577 216.448 681.774 215.302 681.958 214.091L683.958 200.924C684.142 199.713 685.246 198.879 686.412 199.07L967.888 245.201C969.054 245.393 969.857 246.539 969.673 247.75L967.673 260.917C967.488 262.127 966.385 262.961 965.219 262.77Z" fill="white" />
	<path d="M1071.01 1602.97C1068.93 1602.61 1067.1 1601.4 1065.9 1599.6C1048.4 1573.39 921.572 1368.61 1104.21 1191.34C1277.59 1023.06 1354.86 989.89 1368.13 888.073C1369.68 876.183 1385.3 873.836 1390.08 884.76C1425.78 966.404 1479.49 1155.94 1278.85 1272.5C1057.51 1401.08 1070.73 1550.53 1079.92 1593.19C1081.14 1598.82 1076.5 1603.93 1071.01 1602.97Z" fill="url(#paint27_linear_2040_74)" />
	<path d="M1097.83 1607.67C1092.91 1606.81 1089.11 1602.72 1088.51 1597.58C1084.4 1562.56 1075.68 1431.95 1169.08 1400.49C1271.91 1365.86 1350.95 1466.93 1428.05 1392.44C1432.11 1388.52 1438.61 1392.27 1437.5 1397.91C1429.6 1437.89 1397.11 1530.03 1264.73 1544.39C1123.04 1559.76 1106.65 1576.04 1108.85 1596.99C1109.53 1603.45 1103.99 1608.75 1097.83 1607.67Z" fill="url(#paint28_linear_2040_74)" />
	<path opacity="0.47" d="M1358.9 991.708C1356.8 999.015 1354.1 1005.95 1351.01 1012.76C1347.94 1019.57 1344.55 1026.22 1340.9 1032.71C1337.26 1039.21 1333.37 1045.57 1329.15 1051.68C1324.95 1057.82 1320.59 1063.84 1315.94 1069.62C1297.45 1092.84 1275.52 1113.03 1251.6 1130.06C1239.66 1138.56 1227.04 1146.25 1214.4 1153.28C1201.94 1160.23 1189.94 1168.07 1178.41 1176.61C1155.36 1193.71 1134.21 1213.61 1115.61 1235.82C1096.99 1258.01 1081.05 1282.61 1068.38 1308.9C1055.68 1335.19 1046.52 1363.34 1041.59 1392.33C1036.63 1421.31 1035.91 1451.07 1039.14 1480.39C1042.32 1509.76 1049.7 1538.58 1059.78 1566.3C1060.08 1567.1 1059.69 1567.99 1058.93 1568.29C1058.18 1568.59 1057.34 1568.21 1057.03 1567.45C1045.98 1539.86 1037.96 1510.82 1034.09 1481.06C1032.09 1466.19 1031.17 1451.15 1031.31 1436.11C1031.54 1421.08 1032.73 1406.03 1035.12 1391.18C1039.79 1361.46 1048.8 1332.48 1061.46 1305.37C1074.13 1278.24 1090.51 1253.07 1109.42 1230.25C1128.36 1207.45 1149.9 1187 1173.43 1169.4C1185.2 1160.6 1197.48 1152.51 1210.24 1145.31L1219.64 1139.98C1222.77 1138.26 1225.81 1136.39 1228.86 1134.51L1233.44 1131.72L1237.93 1128.77L1242.42 1125.82L1246.82 1122.75C1258.55 1114.52 1269.89 1105.67 1280.56 1096.01C1291.25 1086.36 1301.42 1076.08 1310.73 1064.99C1320.16 1054.01 1328.74 1042.23 1336.54 1029.92C1344.25 1017.59 1351.21 1004.53 1356.31 990.889L1356.35 990.798C1356.62 990.075 1357.4 989.717 1358.1 989.998C1358.76 990.264 1359.1 991.015 1358.9 991.708Z" fill="white" />
	<path opacity="0.47" d="M1093.57 1583.83C1093.8 1582.61 1093.77 1581.42 1093.76 1580.22L1093.78 1576.64C1093.81 1574.25 1093.86 1571.86 1093.95 1569.48C1094.12 1564.71 1094.39 1559.94 1094.75 1555.18C1095.49 1545.66 1096.61 1536.17 1098.16 1526.75C1101.32 1507.94 1106.11 1489.26 1114.04 1471.86C1117.99 1463.18 1122.82 1454.87 1128.68 1447.35C1134.51 1439.82 1141.55 1433.24 1149.52 1428.13C1157.51 1423.08 1166.45 1419.59 1175.68 1417.98C1180.29 1417.15 1184.96 1416.68 1189.62 1416.66C1194.29 1416.56 1198.95 1416.9 1203.57 1417.46C1208.21 1418.05 1212.69 1418.9 1217.23 1419.69L1230.79 1422.18C1239.82 1423.89 1248.83 1425.7 1257.83 1427.56C1275.83 1431.27 1293.75 1435.33 1311.75 1438.77C1320.74 1440.47 1329.76 1441.99 1338.82 1442.94C1347.87 1443.86 1356.98 1444.19 1365.94 1443.12C1374.9 1442.11 1383.66 1439.47 1391.57 1435.02C1399.51 1430.61 1406.52 1424.51 1412.75 1417.67C1413.21 1417.17 1413.97 1417.15 1414.46 1417.62C1414.94 1418.09 1414.96 1418.88 1414.51 1419.38C1408.23 1426.43 1401.08 1432.82 1392.88 1437.51C1384.7 1442.24 1375.55 1445.11 1366.3 1446.26C1357.03 1447.4 1347.7 1447.07 1338.52 1446.16C1329.32 1445.23 1320.22 1443.72 1311.18 1442.04C1293.09 1438.64 1275.16 1434.63 1257.18 1430.98C1239.22 1427.33 1221.14 1423.81 1203.14 1421.03C1198.66 1420.45 1194.15 1420.09 1189.65 1420.15C1185.15 1420.13 1180.66 1420.56 1176.23 1421.32C1167.36 1422.8 1158.81 1426.07 1151.11 1430.85C1143.44 1435.69 1136.61 1441.98 1130.9 1449.24C1125.16 1456.49 1120.39 1464.57 1116.44 1473.06C1108.49 1490.06 1103.57 1508.5 1100.26 1527.13C1098.62 1536.47 1097.42 1545.89 1096.6 1555.34C1096.19 1560.07 1095.88 1564.81 1095.66 1569.55C1095.56 1571.92 1095.48 1574.3 1095.43 1576.67L1095.37 1580.23C1095.36 1581.41 1095.33 1582.61 1095.62 1583.77C1095.76 1584.35 1095.42 1584.94 1094.86 1585.09C1094.3 1585.24 1093.73 1584.89 1093.59 1584.31C1093.55 1584.15 1093.55 1583.98 1093.57 1583.83Z" fill="white" />
	<defs>
		<linearGradient id="paint0_linear_2040_74" x1="-89.091" y1="1814.77" x2="1093.42" y2="585.92" gradientUnits="userSpaceOnUse">
			<stop stop-color="#B37CFF" />
			<stop offset="1" stop-color="#F895E7" />
		</linearGradient>
		<linearGradient id="paint1_linear_2040_74" x1="277.561" y1="56.9272" x2="81.1176" y2="326.099" gradientUnits="userSpaceOnUse">
			<stop stop-color="#B37CFF" />
			<stop offset="1" stop-color="#F895E7" />
		</linearGradient>
		<linearGradient id="paint2_linear_2040_74" x1="11.598" y1="295.418" x2="0.124698" y2="311.139" gradientUnits="userSpaceOnUse">
			<stop stop-color="#B37CFF" />
			<stop offset="1" stop-color="#F895E7" />
		</linearGradient>
		<linearGradient id="paint3_linear_2040_74" x1="73.6218" y1="465.752" x2="65.7486" y2="476.54" gradientUnits="userSpaceOnUse">
			<stop stop-color="#B37CFF" />
			<stop offset="1" stop-color="#F895E7" />
		</linearGradient>
		<linearGradient id="paint4_linear_2040_74" x1="378.199" y1="283.178" x2="175.857" y2="560.432" gradientUnits="userSpaceOnUse">
			<stop stop-color="#B37CFF" />
			<stop offset="1" stop-color="#F895E7" />
		</linearGradient>
		<linearGradient id="paint5_linear_2040_74" x1="455.121" y1="296.958" x2="443.794" y2="312.478" gradientUnits="userSpaceOnUse">
			<stop stop-color="#B37CFF" />
			<stop offset="1" stop-color="#F895E7" />
		</linearGradient>
		<linearGradient id="paint6_linear_2040_74" x1="59.9946" y1="1166.58" x2="336.989" y2="-157.115" gradientUnits="userSpaceOnUse">
			<stop stop-color="#A737D5" />
			<stop offset="1" stop-color="#EF497A" />
		</linearGradient>
		<linearGradient id="paint7_linear_2040_74" x1="610.179" y1="54.2813" x2="604.579" y2="61.954" gradientUnits="userSpaceOnUse">
			<stop stop-color="#B37CFF" />
			<stop offset="1" stop-color="#F895E7" />
		</linearGradient>
		<linearGradient id="paint8_linear_2040_74" x1="527.185" y1="-11.0522" x2="417.444" y2="139.318" gradientUnits="userSpaceOnUse">
			<stop stop-color="#B37CFF" />
			<stop offset="1" stop-color="#F895E7" />
		</linearGradient>
		<linearGradient id="paint9_linear_2040_74" x1="623.002" y1="161.731" x2="497.747" y2="333.359" gradientUnits="userSpaceOnUse">
			<stop stop-color="#B37CFF" />
			<stop offset="1" stop-color="#F895E7" />
		</linearGradient>
		<linearGradient id="paint10_linear_2040_74" x1="646.708" y1="150.117" x2="638.142" y2="161.855" gradientUnits="userSpaceOnUse">
			<stop stop-color="#B37CFF" />
			<stop offset="1" stop-color="#F895E7" />
		</linearGradient>
		<linearGradient id="paint11_linear_2040_74" x1="288.182" y1="1214.2" x2="565.177" y2="-109.494" gradientUnits="userSpaceOnUse">
			<stop stop-color="#A737D5" />
			<stop offset="1" stop-color="#EF497A" />
		</linearGradient>
		<linearGradient id="paint12_linear_2040_74" x1="1035.58" y1="167.705" x2="1051.7" y2="1657.29" gradientUnits="userSpaceOnUse">
			<stop stop-color="#CB236D" />
			<stop offset="1" stop-color="#4C246D" />
		</linearGradient>
		<linearGradient id="paint13_linear_2040_74" x1="966.053" y1="-61.5051" x2="1135.47" y2="211.524" gradientUnits="userSpaceOnUse">
			<stop stop-color="#CB236D" />
			<stop offset="1" stop-color="#4C246D" />
		</linearGradient>
		<linearGradient id="paint14_linear_2040_74" x1="967.726" y1="-34.828" x2="1099.44" y2="177.445" gradientUnits="userSpaceOnUse">
			<stop stop-color="#B37CFF" />
			<stop offset="1" stop-color="#F895E7" />
		</linearGradient>
		<linearGradient id="paint15_linear_2040_74" x1="935.486" y1="-48.7272" x2="865.236" y2="448.417" gradientUnits="userSpaceOnUse">
			<stop stop-color="#FDF53F" />
			<stop offset="1" stop-color="#D93C65" />
		</linearGradient>
		<linearGradient id="paint16_linear_2040_74" x1="911.187" y1="102.344" x2="880.382" y2="524.657" gradientUnits="userSpaceOnUse">
			<stop stop-color="#FDF53F" />
			<stop offset="1" stop-color="#D93C65" />
		</linearGradient>
		<linearGradient id="paint17_linear_2040_74" x1="921.818" y1="362.53" x2="950.465" y2="811.192" gradientUnits="userSpaceOnUse">
			<stop stop-color="#A737D5" />
			<stop offset="1" stop-color="#EF497A" />
		</linearGradient>
		<linearGradient id="paint18_linear_2040_74" x1="925.644" y1="587.697" x2="997.224" y2="993.527" gradientUnits="userSpaceOnUse">
			<stop stop-color="#B37CFF" />
			<stop offset="1" stop-color="#F895E7" />
		</linearGradient>
		<linearGradient id="paint19_linear_2040_74" x1="1119.47" y1="132.952" x2="1167.3" y2="574.988" gradientUnits="userSpaceOnUse">
			<stop stop-color="#53D8FF" />
			<stop offset="1" stop-color="#3840F7" />
		</linearGradient>
		<linearGradient id="paint20_linear_2040_74" x1="1152.73" y1="352.383" x2="1155.66" y2="762.036" gradientUnits="userSpaceOnUse">
			<stop stop-color="#53D8FF" />
			<stop offset="1" stop-color="#3840F7" />
		</linearGradient>
		<linearGradient id="paint21_linear_2040_74" x1="1056.32" y1="183.528" x2="987.042" y2="490.952" gradientUnits="userSpaceOnUse">
			<stop stop-color="#A737D5" />
			<stop offset="1" stop-color="#EF497A" />
		</linearGradient>
		<linearGradient id="paint22_linear_2040_74" x1="1042.66" y1="194.476" x2="1044.21" y2="262.363" gradientUnits="userSpaceOnUse">
			<stop stop-color="#A737D5" />
			<stop offset="1" stop-color="#EF497A" />
		</linearGradient>
		<linearGradient id="paint23_linear_2040_74" x1="1052.29" y1="419.697" x2="985.566" y2="715.802" gradientUnits="userSpaceOnUse">
			<stop stop-color="#A737D5" />
			<stop offset="1" stop-color="#EF497A" />
		</linearGradient>
		<linearGradient id="paint24_linear_2040_74" x1="1039.14" y1="430.238" x2="1040.63" y2="495.627" gradientUnits="userSpaceOnUse">
			<stop stop-color="#A737D5" />
			<stop offset="1" stop-color="#EF497A" />
		</linearGradient>
		<linearGradient id="paint25_linear_2040_74" x1="1054.13" y1="626.784" x2="984.811" y2="934.39" gradientUnits="userSpaceOnUse">
			<stop stop-color="#A737D5" />
			<stop offset="1" stop-color="#EF497A" />
		</linearGradient>
		<linearGradient id="paint26_linear_2040_74" x1="1040.46" y1="637.737" x2="1042.01" y2="705.665" gradientUnits="userSpaceOnUse">
			<stop stop-color="#A737D5" />
			<stop offset="1" stop-color="#EF497A" />
		</linearGradient>
		<linearGradient id="paint27_linear_2040_74" x1="880.726" y1="1652.39" x2="1339.4" y2="1129.83" gradientUnits="userSpaceOnUse">
			<stop stop-color="#A737D5" />
			<stop offset="1" stop-color="#EF497A" />
		</linearGradient>
		<linearGradient id="paint28_linear_2040_74" x1="1227.92" y1="1610.35" x2="1374.69" y2="1012.3" gradientUnits="userSpaceOnUse">
			<stop stop-color="#A737D5" />
			<stop offset="1" stop-color="#EF497A" />
		</linearGradient>
	</defs>
</svg>
