<svg xmlns="http://www.w3.org/2000/svg" xmlns:xlink="http://www.w3.org/1999/xlink" width="100" zoomAndPan="magnify" viewBox="0 0 375 374.999991" height="100" preserveAspectRatio="xMidYMid meet" version="1.0">
	<defs>
		<g />
		<clipPath id="49feb31673">
			<path d="M 187.019531 0 C 83.203125 0 -0.957031 84.160156 -0.957031 187.980469 C -0.957031 291.796875 83.203125 375.957031 187.019531 375.957031 C 290.839844 375.957031 375 291.796875 375 187.980469 C 375 84.160156 290.839844 0 187.019531 0 Z M 187.019531 0 " clip-rule="nonzero" />
		</clipPath>
		<clipPath id="bf48e895e6">
			<path d="M 32.132812 32.132812 L 326.882812 32.132812 L 326.882812 326.882812 L 32.132812 326.882812 Z M 32.132812 32.132812 " clip-rule="nonzero" />
		</clipPath>
	</defs>
	<g clip-path="url(#49feb31673)">
		<rect x="-37.5" width="450" fill="#191934" y="-37.499999" height="449.999989" fill-opacity="1" />
	</g>
	<g fill="#FFFFFF" fill-opacity="1">
		<g transform="translate(77.110129, 72.840808)">
			<g>
				<path d="M -4.265625 -9.1875 L -1.625 -6.421875 L 2.359375 -10.203125 L 3.28125 -9.21875 L -0.703125 -5.4375 L 2.34375 -2.21875 L 1.1875 -1.125 L -6.359375 -9.09375 L -0.734375 -14.421875 L 0.203125 -13.421875 Z M -4.265625 -9.1875 " />
			</g>
		</g>
	</g>
	<g fill="#FFFFFF" fill-opacity="1">
		<g transform="translate(91.047119, 60.270368)">
			<g>
				<path d="M 5.421875 -3.8125 C 4.515625 -3.144531 3.5625 -2.742188 2.5625 -2.609375 C 1.5625 -2.484375 0.601562 -2.613281 -0.3125 -3 C -1.238281 -3.394531 -2.007812 -4.015625 -2.625 -4.859375 C -3.25 -5.722656 -3.609375 -6.648438 -3.703125 -7.640625 C -3.796875 -8.628906 -3.628906 -9.582031 -3.203125 -10.5 C -2.785156 -11.414062 -2.125 -12.207031 -1.21875 -12.875 C -0.34375 -13.519531 0.597656 -13.90625 1.609375 -14.03125 C 2.617188 -14.15625 3.578125 -14.023438 4.484375 -13.640625 C 5.390625 -13.253906 6.160156 -12.625 6.796875 -11.75 C 7.421875 -10.894531 7.78125 -9.972656 7.875 -8.984375 C 7.976562 -8.003906 7.8125 -7.054688 7.375 -6.140625 C 6.945312 -5.234375 6.296875 -4.457031 5.421875 -3.8125 Z M 4.59375 -4.921875 C 5.238281 -5.390625 5.707031 -5.960938 6 -6.640625 C 6.300781 -7.328125 6.414062 -8.035156 6.34375 -8.765625 C 6.269531 -9.503906 6 -10.191406 5.53125 -10.828125 C 5.050781 -11.484375 4.472656 -11.957031 3.796875 -12.25 C 3.117188 -12.550781 2.414062 -12.65625 1.6875 -12.5625 C 0.957031 -12.476562 0.269531 -12.203125 -0.375 -11.734375 C -1.03125 -11.253906 -1.515625 -10.675781 -1.828125 -10 C -2.140625 -9.320312 -2.257812 -8.613281 -2.1875 -7.875 C -2.113281 -7.144531 -1.835938 -6.453125 -1.359375 -5.796875 C -0.890625 -5.160156 -0.316406 -4.691406 0.359375 -4.390625 C 1.035156 -4.097656 1.742188 -3.992188 2.484375 -4.078125 C 3.234375 -4.160156 3.9375 -4.441406 4.59375 -4.921875 Z M 4.59375 -4.921875 " />
			</g>
		</g>
	</g>
	<g fill="#FFFFFF" fill-opacity="1">
		<g transform="translate(109.138943, 47.835958)">
			<g>
				<path d="M 7.890625 -4.296875 L 4.203125 -6.140625 C 3.953125 -5.984375 3.753906 -5.863281 3.609375 -5.78125 L 1.21875 -4.484375 L 2.828125 -1.546875 L 1.4375 -0.78125 L -3.828125 -10.421875 L -0.046875 -12.484375 C 1.191406 -13.160156 2.332031 -13.394531 3.375 -13.1875 C 4.425781 -12.976562 5.238281 -12.351562 5.8125 -11.3125 C 6.21875 -10.5625 6.375 -9.828125 6.28125 -9.109375 C 6.195312 -8.390625 5.882812 -7.722656 5.34375 -7.109375 L 9.390625 -5.125 Z M 2.921875 -6.90625 C 3.796875 -7.382812 4.359375 -7.9375 4.609375 -8.5625 C 4.859375 -9.195312 4.796875 -9.863281 4.421875 -10.5625 C 4.035156 -11.257812 3.507812 -11.664062 2.84375 -11.78125 C 2.1875 -11.90625 1.421875 -11.726562 0.546875 -11.25 L -1.78125 -9.984375 L 0.59375 -5.640625 Z M 2.921875 -6.90625 " />
			</g>
		</g>
	</g>
	<g fill="#FFFFFF" fill-opacity="1">
		<g transform="translate(127.255624, 38.689418)">
			<g />
		</g>
	</g>
	<g fill="#FFFFFF" fill-opacity="1">
		<g transform="translate(139.515156, 33.912097)">
			<g>
				<path d="M 0.84375 -10.3125 L -2.75 -9.203125 L -3.15625 -10.515625 L 5.515625 -13.1875 L 5.921875 -11.875 L 2.328125 -10.765625 L 5.140625 -1.578125 L 3.65625 -1.125 Z M 0.84375 -10.3125 " />
			</g>
		</g>
	</g>
	<g fill="#FFFFFF" fill-opacity="1">
		<g transform="translate(156.868964, 29.04601)">
			<g>
				<path d="M 9.015625 -12.734375 L 10.921875 -1.921875 L 9.375 -1.65625 L 8.53125 -6.46875 L 2.328125 -5.375 L 3.171875 -0.5625 L 1.609375 -0.28125 L -0.296875 -11.09375 L 1.265625 -11.375 L 2.09375 -6.734375 L 8.296875 -7.828125 L 7.46875 -12.46875 Z M 9.015625 -12.734375 " />
			</g>
		</g>
	</g>
	<g fill="#FFFFFF" fill-opacity="1">
		<g transform="translate(178.179227, 25.936018)">
			<g>
				<path d="M 9.53125 -1.8125 L 9.59375 -0.453125 L 1.640625 -0.078125 L 1.125 -11.046875 L 8.859375 -11.40625 L 8.921875 -10.03125 L 2.765625 -9.75 L 2.921875 -6.40625 L 8.40625 -6.65625 L 8.46875 -5.3125 L 2.984375 -5.0625 L 3.15625 -1.515625 Z M 9.53125 -1.8125 " />
			</g>
		</g>
	</g>
	<g fill="#FFFFFF" fill-opacity="1">
		<g transform="translate(197.592527, 25.640639)">
			<g />
		</g>
	</g>
	<g fill="#FFFFFF" fill-opacity="1">
		<g transform="translate(210.699052, 26.666171)">
			<g>
				<path d="M 4.765625 0.875 C 3.953125 0.738281 3.179688 0.484375 2.453125 0.109375 C 1.734375 -0.253906 1.191406 -0.671875 0.828125 -1.140625 L 1.578125 -2.265625 C 1.941406 -1.828125 2.425781 -1.441406 3.03125 -1.109375 C 3.644531 -0.773438 4.289062 -0.550781 4.96875 -0.4375 C 5.875 -0.300781 6.570312 -0.351562 7.0625 -0.59375 C 7.550781 -0.832031 7.835938 -1.207031 7.921875 -1.71875 C 7.972656 -2.082031 7.894531 -2.398438 7.6875 -2.671875 C 7.488281 -2.941406 7.21875 -3.164062 6.875 -3.34375 C 6.539062 -3.53125 6.054688 -3.742188 5.421875 -3.984375 C 4.640625 -4.304688 4.015625 -4.601562 3.546875 -4.875 C 3.078125 -5.15625 2.691406 -5.53125 2.390625 -6 C 2.097656 -6.46875 2.003906 -7.046875 2.109375 -7.734375 C 2.203125 -8.304688 2.4375 -8.800781 2.8125 -9.21875 C 3.195312 -9.644531 3.71875 -9.945312 4.375 -10.125 C 5.039062 -10.3125 5.832031 -10.335938 6.75 -10.203125 C 7.394531 -10.097656 8.015625 -9.914062 8.609375 -9.65625 C 9.203125 -9.394531 9.695312 -9.070312 10.09375 -8.6875 L 9.390625 -7.515625 C 8.972656 -7.878906 8.519531 -8.175781 8.03125 -8.40625 C 7.539062 -8.632812 7.046875 -8.789062 6.546875 -8.875 C 5.671875 -9.007812 4.988281 -8.945312 4.5 -8.6875 C 4.007812 -8.4375 3.726562 -8.0625 3.65625 -7.5625 C 3.59375 -7.1875 3.664062 -6.863281 3.875 -6.59375 C 4.09375 -6.332031 4.375 -6.109375 4.71875 -5.921875 C 5.070312 -5.734375 5.546875 -5.515625 6.140625 -5.265625 C 6.929688 -4.941406 7.5625 -4.640625 8.03125 -4.359375 C 8.5 -4.085938 8.878906 -3.722656 9.171875 -3.265625 C 9.460938 -2.816406 9.550781 -2.253906 9.4375 -1.578125 C 9.351562 -1.003906 9.117188 -0.503906 8.734375 -0.078125 C 8.359375 0.347656 7.832031 0.644531 7.15625 0.8125 C 6.488281 0.988281 5.691406 1.007812 4.765625 0.875 Z M 4.765625 0.875 " />
			</g>
		</g>
	</g>
	<g fill="#FFFFFF" fill-opacity="1">
		<g transform="translate(228.99128, 30.033444)">
			<g>
				<path d="M 6.234375 -8.25 L 2.609375 -9.25 L 2.96875 -10.578125 L 11.71875 -8.171875 L 11.359375 -6.84375 L 7.734375 -7.84375 L 5.1875 1.421875 L 3.6875 1.015625 Z M 6.234375 -8.25 " />
			</g>
		</g>
	</g>
	<g fill="#FFFFFF" fill-opacity="1">
		<g transform="translate(246.256549, 35.242734)">
			<g>
				<path d="M 5.6875 2.46875 C 4.332031 1.914062 3.4375 1.097656 3 0.015625 C 2.5625 -1.066406 2.640625 -2.332031 3.234375 -3.78125 L 5.625 -9.5625 L 7.078125 -8.96875 L 4.71875 -3.25 C 3.820312 -1.070312 4.328125 0.410156 6.234375 1.203125 C 7.160156 1.578125 7.976562 1.597656 8.6875 1.265625 C 9.40625 0.929688 9.988281 0.210938 10.4375 -0.890625 L 12.796875 -6.609375 L 14.21875 -6.03125 L 11.828125 -0.25 C 11.234375 1.195312 10.394531 2.148438 9.3125 2.609375 C 8.238281 3.078125 7.03125 3.03125 5.6875 2.46875 Z M 5.6875 2.46875 " />
			</g>
		</g>
	</g>
	<g fill="#FFFFFF" fill-opacity="1">
		<g transform="translate(265.612296, 43.840014)">
			<g>
				<path d="M 6.921875 -8.671875 L 10.9375 -6.359375 C 11.9375 -5.773438 12.710938 -5.054688 13.265625 -4.203125 C 13.816406 -3.347656 14.097656 -2.441406 14.109375 -1.484375 C 14.117188 -0.523438 13.851562 0.421875 13.3125 1.359375 C 12.769531 2.285156 12.078125 2.988281 11.234375 3.46875 C 10.390625 3.945312 9.460938 4.15625 8.453125 4.09375 C 7.441406 4.039062 6.4375 3.722656 5.4375 3.140625 L 1.421875 0.828125 Z M 6.046875 1.921875 C 6.804688 2.367188 7.5625 2.609375 8.3125 2.640625 C 9.070312 2.679688 9.765625 2.523438 10.390625 2.171875 C 11.023438 1.816406 11.546875 1.285156 11.953125 0.578125 C 12.359375 -0.128906 12.554688 -0.84375 12.546875 -1.5625 C 12.546875 -2.28125 12.335938 -2.957031 11.921875 -3.59375 C 11.515625 -4.226562 10.929688 -4.769531 10.171875 -5.21875 L 7.59375 -6.703125 L 3.46875 0.4375 Z M 6.046875 1.921875 " />
			</g>
		</g>
	</g>
	<g fill="#FFFFFF" fill-opacity="1">
		<g transform="translate(284.103606, 55.290694)">
			<g>
				<path d="M 8.453125 4.765625 L 7.625 5.84375 L 1.296875 1 L 7.96875 -7.71875 L 14.125 -3.015625 L 13.296875 -1.921875 L 8.40625 -5.671875 L 6.359375 -3.015625 L 10.71875 0.328125 L 9.90625 1.40625 L 5.546875 -1.9375 L 3.390625 0.875 Z M 8.453125 4.765625 " />
			</g>
		</g>
	</g>
	<g fill="#FFFFFF" fill-opacity="1">
		<g transform="translate(299.138927, 67.410833)">
			<g>
				<path d="M 15.609375 0 L 7.875 7.8125 L 6.96875 6.890625 L 8.046875 -3.546875 L 2.28125 2.265625 L 1.171875 1.15625 L 8.90625 -6.65625 L 9.828125 -5.75 L 8.734375 4.71875 L 14.5 -1.109375 Z M 15.609375 0 " />
			</g>
		</g>
	</g>
	<g fill="#FFFFFF" fill-opacity="1">
		<g transform="translate(313.98905, 83.030061)">
			<g>
				<path d="M 9.921875 -2.921875 L 7.578125 -5.890625 L 8.65625 -6.75 L 14.28125 0.390625 L 13.203125 1.25 L 10.875 -1.71875 L 3.328125 4.21875 L 2.375 3.015625 Z M 9.921875 -2.921875 " />
			</g>
		</g>
	</g>
	<g fill="#FFFFFF" fill-opacity="1">
		<g transform="translate(324.768677, 97.523762)">
			<g>
				<path d="M 2.4375 4.1875 C 2 3.488281 1.6875 2.742188 1.5 1.953125 C 1.320312 1.160156 1.289062 0.472656 1.40625 -0.109375 L 2.75 -0.265625 C 2.644531 0.285156 2.664062 0.90625 2.8125 1.59375 C 2.957031 2.28125 3.210938 2.914062 3.578125 3.5 C 4.054688 4.28125 4.546875 4.773438 5.046875 4.984375 C 5.546875 5.203125 6.007812 5.175781 6.4375 4.90625 C 6.757812 4.71875 6.953125 4.457031 7.015625 4.125 C 7.085938 3.789062 7.082031 3.429688 7 3.046875 C 6.925781 2.671875 6.78125 2.164062 6.5625 1.53125 C 6.300781 0.726562 6.117188 0.0625 6.015625 -0.46875 C 5.921875 -1 5.953125 -1.53125 6.109375 -2.0625 C 6.273438 -2.59375 6.65625 -3.046875 7.25 -3.421875 C 7.75 -3.722656 8.28125 -3.863281 8.84375 -3.84375 C 9.40625 -3.832031 9.972656 -3.628906 10.546875 -3.234375 C 11.117188 -2.847656 11.648438 -2.265625 12.140625 -1.484375 C 12.484375 -0.921875 12.75 -0.332031 12.9375 0.28125 C 13.125 0.90625 13.195312 1.488281 13.15625 2.03125 L 11.828125 2.265625 C 11.828125 1.710938 11.753906 1.171875 11.609375 0.640625 C 11.460938 0.117188 11.257812 -0.351562 11 -0.78125 C 10.53125 -1.53125 10.039062 -2.003906 9.53125 -2.203125 C 9.019531 -2.410156 8.550781 -2.382812 8.125 -2.125 C 7.800781 -1.925781 7.609375 -1.65625 7.546875 -1.3125 C 7.484375 -0.976562 7.488281 -0.617188 7.5625 -0.234375 C 7.644531 0.140625 7.789062 0.632812 8 1.25 C 8.257812 2.070312 8.4375 2.75 8.53125 3.28125 C 8.625 3.8125 8.59375 4.332031 8.4375 4.84375 C 8.28125 5.363281 7.90625 5.800781 7.3125 6.15625 C 6.832031 6.457031 6.304688 6.597656 5.734375 6.578125 C 5.160156 6.566406 4.585938 6.363281 4.015625 5.96875 C 3.453125 5.582031 2.925781 4.988281 2.4375 4.1875 Z M 2.4375 4.1875 " />
			</g>
		</g>
	</g>
	<g fill="#FFFFFF" fill-opacity="1">
		<g transform="translate(334.062577, 113.712789)">
			<g>
				<path d="M 2.65625 0.703125 C 2.78125 0.972656 2.789062 1.242188 2.6875 1.515625 C 2.59375 1.785156 2.410156 1.984375 2.140625 2.109375 C 1.992188 2.179688 1.84375 2.226562 1.6875 2.25 C 1.539062 2.28125 1.3125 2.316406 1 2.359375 L -1.296875 2.640625 L -1.734375 1.765625 L 0.640625 1.265625 C 0.609375 1.046875 0.644531 0.84375 0.75 0.65625 C 0.851562 0.476562 1.007812 0.335938 1.21875 0.234375 C 1.5 0.0976562 1.773438 0.0703125 2.046875 0.15625 C 2.316406 0.25 2.519531 0.429688 2.65625 0.703125 Z M 2.65625 0.703125 " />
			</g>
		</g>
	</g>
	<g fill="#FFFFFF" fill-opacity="1">
		<g transform="translate(339.269812, 125.148146)">
			<g />
		</g>
	</g>
	<g fill="#FFFFFF" fill-opacity="1">
		<g transform="translate(343.819735, 137.454177)">
			<g>
				<path d="M 7.890625 7.1875 C 7.890625 7.863281 7.710938 8.4375 7.359375 8.90625 C 7.015625 9.375 6.5 9.707031 5.8125 9.90625 C 4.882812 10.15625 4.078125 10 3.390625 9.4375 C 2.710938 8.882812 2.191406 7.953125 1.828125 6.640625 L 0.4375 1.578125 L 11.03125 -1.34375 L 12.34375 3.421875 C 12.675781 4.628906 12.6875 5.628906 12.375 6.421875 C 12.070312 7.222656 11.492188 7.742188 10.640625 7.984375 C 10.085938 8.128906 9.570312 8.125 9.09375 7.96875 C 8.625 7.820312 8.222656 7.5625 7.890625 7.1875 Z M 10.21875 0.53125 L 6.84375 1.46875 L 7.6875 4.5625 C 7.90625 5.332031 8.210938 5.882812 8.609375 6.21875 C 9.015625 6.550781 9.492188 6.644531 10.046875 6.5 C 10.597656 6.34375 10.957031 6.015625 11.125 5.515625 C 11.300781 5.023438 11.28125 4.394531 11.0625 3.625 Z M 3.03125 6.234375 C 3.269531 7.085938 3.59375 7.691406 4 8.046875 C 4.40625 8.398438 4.910156 8.492188 5.515625 8.328125 C 6.691406 8.003906 7.039062 6.984375 6.5625 5.265625 L 5.609375 1.796875 L 2.078125 2.765625 Z M 3.03125 6.234375 " />
			</g>
		</g>
	</g>
	<g fill="#FFFFFF" fill-opacity="1">
		<g transform="translate(348.741113, 157.54984)">
			<g>
				<path d="M 4.59375 5.234375 L 0.84375 5.78125 L 0.625 4.25 L 4.40625 3.703125 L 10.859375 -1.65625 L 11.109375 0 L 5.875 4.328125 L 12.125 6.96875 L 12.359375 8.515625 Z M 4.59375 5.234375 " />
			</g>
		</g>
	</g>
	<g fill="#FFFFFF" fill-opacity="1">
		<g transform="translate(350.904495, 176.48614)">
			<g />
		</g>
	</g>
	<g fill="#FFFFFF" fill-opacity="1">
		<g transform="translate(351.179346, 189.636206)">
			<g>
				<path d="M 9.390625 4.34375 L 9.59375 0.578125 L 10.96875 0.640625 L 10.484375 9.703125 L 9.109375 9.640625 L 9.3125 5.890625 L -0.28125 5.375 L -0.203125 3.828125 Z M 9.390625 4.34375 " />
			</g>
		</g>
	</g>
	<g fill="#FFFFFF" fill-opacity="1">
		<g transform="translate(349.788987, 207.611792)">
			<g>
				<path d="M 8.859375 12.84375 L -1.953125 10.921875 L -1.671875 9.375 L 3.140625 10.234375 L 4.25 4.03125 L -0.5625 3.171875 L -0.28125 1.609375 L 10.53125 3.53125 L 10.25 5.09375 L 5.609375 4.265625 L 4.5 10.46875 L 9.140625 11.296875 Z M 8.859375 12.84375 " />
			</g>
		</g>
	</g>
	<g fill="#FFFFFF" fill-opacity="1">
		<g transform="translate(345.389248, 228.69164)">
			<g>
				<path d="M -1.578125 9.578125 L -2.875 9.171875 L -0.484375 1.5625 L 10 4.84375 L 7.671875 12.234375 L 6.359375 11.828125 L 8.203125 5.953125 L 5 4.953125 L 3.359375 10.1875 L 2.078125 9.78125 L 3.71875 4.546875 L 0.328125 3.484375 Z M -1.578125 9.578125 " />
			</g>
		</g>
	</g>
	<g fill="#FFFFFF" fill-opacity="1">
		<g transform="translate(333.532764, 258.981599)">
			<g>
				<path d="M -2.453125 4.171875 C -2.054688 3.453125 -1.554688 2.816406 -0.953125 2.265625 C -0.359375 1.722656 0.21875 1.359375 0.78125 1.171875 L 1.578125 2.265625 C 1.046875 2.441406 0.519531 2.757812 0 3.21875 C -0.53125 3.6875 -0.960938 4.21875 -1.296875 4.8125 C -1.734375 5.613281 -1.921875 6.285156 -1.859375 6.828125 C -1.804688 7.378906 -1.554688 7.78125 -1.109375 8.03125 C -0.785156 8.207031 -0.457031 8.242188 -0.125 8.140625 C 0.195312 8.046875 0.5 7.867188 0.78125 7.609375 C 1.070312 7.347656 1.441406 6.96875 1.890625 6.46875 C 2.453125 5.84375 2.941406 5.359375 3.359375 5.015625 C 3.785156 4.671875 4.269531 4.4375 4.8125 4.3125 C 5.351562 4.195312 5.925781 4.3125 6.53125 4.65625 C 7.039062 4.9375 7.425781 5.320312 7.6875 5.8125 C 7.957031 6.3125 8.0625 6.90625 8 7.59375 C 7.945312 8.28125 7.695312 9.03125 7.25 9.84375 C 6.925781 10.414062 6.539062 10.929688 6.09375 11.390625 C 5.644531 11.859375 5.179688 12.21875 4.703125 12.46875 L 3.84375 11.40625 C 4.320312 11.144531 4.753906 10.816406 5.140625 10.421875 C 5.523438 10.035156 5.835938 9.625 6.078125 9.1875 C 6.503906 8.414062 6.679688 7.753906 6.609375 7.203125 C 6.546875 6.660156 6.289062 6.269531 5.84375 6.03125 C 5.507812 5.84375 5.179688 5.800781 4.859375 5.90625 C 4.535156 6.007812 4.226562 6.191406 3.9375 6.453125 C 3.644531 6.722656 3.28125 7.101562 2.84375 7.59375 C 2.25 8.21875 1.742188 8.695312 1.328125 9.03125 C 0.921875 9.375 0.457031 9.601562 -0.0625 9.71875 C -0.59375 9.84375 -1.160156 9.738281 -1.765625 9.40625 C -2.265625 9.125 -2.648438 8.734375 -2.921875 8.234375 C -3.191406 7.734375 -3.289062 7.132812 -3.21875 6.4375 C -3.15625 5.75 -2.898438 4.992188 -2.453125 4.171875 Z M -2.453125 4.171875 " />
			</g>
		</g>
	</g>
	<g fill="#FFFFFF" fill-opacity="1">
		<g transform="translate(324.086369, 275.000055)">
			<g>
				<path d="M 5.609375 8.703125 L 7.796875 5.625 L 8.90625 6.421875 L 3.640625 13.8125 L 2.53125 13.015625 L 4.703125 9.953125 L -3.125 4.375 L -2.21875 3.125 Z M 5.609375 8.703125 " />
			</g>
		</g>
	</g>
	<g fill="#FFFFFF" fill-opacity="1">
		<g transform="translate(313.263184, 289.424312)">
			<g>
				<path d="M -4.28125 4.5 C -3.289062 3.414062 -2.207031 2.851562 -1.03125 2.8125 C 0.132812 2.769531 1.289062 3.28125 2.4375 4.34375 L 7.046875 8.5625 L 5.984375 9.71875 L 1.421875 5.53125 C -0.304688 3.945312 -1.867188 3.914062 -3.265625 5.4375 C -3.941406 6.175781 -4.242188 6.9375 -4.171875 7.71875 C -4.109375 8.5 -3.640625 9.289062 -2.765625 10.09375 L 1.796875 14.28125 L 0.765625 15.421875 L -3.84375 11.203125 C -5 10.140625 -5.609375 9.023438 -5.671875 7.859375 C -5.734375 6.691406 -5.269531 5.570312 -4.28125 4.5 Z M -4.28125 4.5 " />
			</g>
		</g>
	</g>
	<g fill="#FFFFFF" fill-opacity="1">
		<g transform="translate(298.540711, 304.6528)">
			<g>
				<path d="M 5.765625 9.484375 L 2.203125 12.46875 C 1.316406 13.207031 0.378906 13.679688 -0.609375 13.890625 C -1.597656 14.109375 -2.546875 14.054688 -3.453125 13.734375 C -4.367188 13.421875 -5.171875 12.851562 -5.859375 12.03125 C -6.546875 11.195312 -6.96875 10.300781 -7.125 9.34375 C -7.28125 8.394531 -7.15625 7.457031 -6.75 6.53125 C -6.351562 5.601562 -5.710938 4.769531 -4.828125 4.03125 L -1.265625 1.046875 Z M -3.875 5.015625 C -4.550781 5.578125 -5.035156 6.207031 -5.328125 6.90625 C -5.617188 7.601562 -5.707031 8.304688 -5.59375 9.015625 C -5.488281 9.734375 -5.175781 10.40625 -4.65625 11.03125 C -4.132812 11.65625 -3.53125 12.085938 -2.84375 12.328125 C -2.15625 12.578125 -1.441406 12.613281 -0.703125 12.4375 C 0.0234375 12.269531 0.726562 11.90625 1.40625 11.34375 L 3.6875 9.4375 L -1.59375 3.109375 Z M -3.875 5.015625 " />
			</g>
		</g>
	</g>
	<g fill="#FFFFFF" fill-opacity="1">
		<g transform="translate(281.435114, 318.087021)">
			<g>
				<path d="M -7.375 6.296875 L -8.109375 5.15625 L -1.390625 0.875 L 4.515625 10.140625 L -2.015625 14.3125 L -2.765625 13.15625 L 2.4375 9.84375 L 0.640625 7 L -4 9.953125 L -4.71875 8.828125 L -0.078125 5.875 L -1.984375 2.875 Z M -7.375 6.296875 " />
			</g>
		</g>
	</g>
	<g fill="#FFFFFF" fill-opacity="1">
		<g transform="translate(264.888013, 328.046111)">
			<g>
				<path d="M -5.359375 14.65625 L -10.03125 4.71875 L -8.859375 4.171875 L 0.578125 8.78125 L -2.90625 1.375 L -1.484375 0.703125 L 3.1875 10.640625 L 2.015625 11.1875 L -7.421875 6.578125 L -3.9375 13.984375 Z M -5.359375 14.65625 " />
			</g>
		</g>
	</g>
	<g fill="#FFFFFF" fill-opacity="1">
		<g transform="translate(245.117309, 336.621091)">
			<g>
				<path d="M -0.65625 10.328125 L 2.921875 9.15625 L 3.359375 10.453125 L -5.265625 13.28125 L -5.703125 11.984375 L -2.125 10.8125 L -5.109375 1.671875 L -3.640625 1.1875 Z M -0.65625 10.328125 " />
			</g>
		</g>
	</g>
	<g fill="#FFFFFF" fill-opacity="1">
		<g transform="translate(227.803135, 341.770078)">
			<g>
				<path d="M -4.78125 0.84375 C -3.96875 0.675781 -3.15625 0.640625 -2.34375 0.734375 C -1.539062 0.835938 -0.882812 1.039062 -0.375 1.34375 L -0.6875 2.6875 C -1.1875 2.394531 -1.78125 2.195312 -2.46875 2.09375 C -3.15625 1.988281 -3.835938 2.003906 -4.515625 2.140625 C -5.410156 2.328125 -6.046875 2.617188 -6.421875 3.015625 C -6.796875 3.410156 -6.929688 3.859375 -6.828125 4.359375 C -6.753906 4.722656 -6.570312 5 -6.28125 5.1875 C -5.988281 5.375 -5.65625 5.488281 -5.28125 5.53125 C -4.90625 5.582031 -4.378906 5.617188 -3.703125 5.640625 C -2.847656 5.660156 -2.148438 5.71875 -1.609375 5.8125 C -1.078125 5.914062 -0.59375 6.132812 -0.15625 6.46875 C 0.28125 6.800781 0.566406 7.3125 0.703125 8 C 0.816406 8.570312 0.769531 9.117188 0.5625 9.640625 C 0.363281 10.160156 -0.015625 10.625 -0.578125 11.03125 C -1.140625 11.4375 -1.875 11.734375 -2.78125 11.921875 C -3.425781 12.046875 -4.070312 12.085938 -4.71875 12.046875 C -5.363281 12.003906 -5.9375 11.878906 -6.4375 11.671875 L -6.171875 10.3125 C -5.671875 10.507812 -5.144531 10.628906 -4.59375 10.671875 C -4.050781 10.710938 -3.535156 10.6875 -3.046875 10.59375 C -2.179688 10.40625 -1.5625 10.109375 -1.1875 9.703125 C -0.820312 9.304688 -0.691406 8.859375 -0.796875 8.359375 C -0.867188 7.984375 -1.050781 7.707031 -1.34375 7.53125 C -1.632812 7.351562 -1.972656 7.238281 -2.359375 7.1875 C -2.742188 7.132812 -3.265625 7.101562 -3.921875 7.09375 C -4.785156 7.050781 -5.484375 6.984375 -6.015625 6.890625 C -6.546875 6.796875 -7.023438 6.585938 -7.453125 6.265625 C -7.878906 5.941406 -8.164062 5.441406 -8.3125 4.765625 C -8.425781 4.203125 -8.375 3.65625 -8.15625 3.125 C -7.945312 2.59375 -7.5625 2.125 -7 1.71875 C -6.4375 1.320312 -5.695312 1.03125 -4.78125 0.84375 Z M -4.78125 0.84375 " />
			</g>
		</g>
	</g>
	<g fill="#FFFFFF" fill-opacity="1">
		<g transform="translate(209.406528, 344.935943)">
			<g>
				<path d="M -1.5625 2.234375 C -1.863281 2.265625 -2.117188 2.1875 -2.328125 2 C -2.546875 1.8125 -2.671875 1.570312 -2.703125 1.28125 C -2.722656 1.125 -2.722656 0.96875 -2.703125 0.8125 C -2.679688 0.664062 -2.632812 0.4375 -2.5625 0.125 L -2.046875 -2.125 L -1.078125 -2.21875 L -1.40625 0.15625 C -1.195312 0.207031 -1.023438 0.3125 -0.890625 0.46875 C -0.753906 0.632812 -0.671875 0.832031 -0.640625 1.0625 C -0.609375 1.363281 -0.679688 1.625 -0.859375 1.84375 C -1.035156 2.070312 -1.269531 2.203125 -1.5625 2.234375 Z M -1.5625 2.234375 " />
			</g>
		</g>
	</g>
	<g fill="#FFFFFF" fill-opacity="1">
		<g transform="translate(196.878527, 345.900209)">
			<g />
		</g>
	</g>
	<g fill="#FFFFFF" fill-opacity="1">
		<g transform="translate(183.724439, 345.899312)">
			<g>
				<path d="M -4.515625 9.296875 L -0.765625 9.578125 L -0.875 10.953125 L -9.921875 10.28125 L -9.8125 8.90625 L -6.0625 9.1875 L -5.359375 -0.390625 L -3.8125 -0.28125 Z M -4.515625 9.296875 " />
			</g>
		</g>
	</g>
	<g fill="#FFFFFF" fill-opacity="1">
		<g transform="translate(165.784796, 344.147774)">
			<g>
				<path d="M -6.453125 -1.421875 C -5.359375 -1.203125 -4.425781 -0.769531 -3.65625 -0.125 C -2.882812 0.519531 -2.332031 1.316406 -2 2.265625 C -1.664062 3.210938 -1.601562 4.203125 -1.8125 5.234375 C -2.019531 6.273438 -2.457031 7.160156 -3.125 7.890625 C -3.800781 8.628906 -4.617188 9.148438 -5.578125 9.453125 C -6.546875 9.765625 -7.578125 9.8125 -8.671875 9.59375 C -9.742188 9.375 -10.664062 8.9375 -11.4375 8.28125 C -12.21875 7.625 -12.769531 6.828125 -13.09375 5.890625 C -13.414062 4.960938 -13.46875 3.972656 -13.25 2.921875 C -13.039062 1.878906 -12.609375 0.988281 -11.953125 0.25 C -11.296875 -0.488281 -10.484375 -1.003906 -9.515625 -1.296875 C -8.546875 -1.597656 -7.523438 -1.640625 -6.453125 -1.421875 Z M -6.734375 -0.0625 C -7.515625 -0.226562 -8.253906 -0.191406 -8.953125 0.046875 C -9.660156 0.285156 -10.257812 0.679688 -10.75 1.234375 C -11.238281 1.796875 -11.5625 2.460938 -11.71875 3.234375 C -11.875 4.023438 -11.832031 4.769531 -11.59375 5.46875 C -11.363281 6.164062 -10.96875 6.753906 -10.40625 7.234375 C -9.84375 7.722656 -9.171875 8.050781 -8.390625 8.21875 C -7.585938 8.375 -6.832031 8.335938 -6.125 8.109375 C -5.425781 7.878906 -4.828125 7.488281 -4.328125 6.9375 C -3.835938 6.382812 -3.515625 5.710938 -3.359375 4.921875 C -3.203125 4.148438 -3.242188 3.410156 -3.484375 2.703125 C -3.722656 2.003906 -4.125 1.40625 -4.6875 0.90625 C -5.25 0.414062 -5.929688 0.09375 -6.734375 -0.0625 Z M -6.734375 -0.0625 " />
			</g>
		</g>
	</g>
	<g fill="#FFFFFF" fill-opacity="1">
		<g transform="translate(144.331748, 339.090267)">
			<g />
		</g>
	</g>
	<g fill="#FFFFFF" fill-opacity="1">
		<g transform="translate(131.896226, 334.79946)">
			<g>
				<path d="M -7.3125 7.3125 L -3.859375 8.796875 L -4.390625 10.0625 L -12.71875 6.484375 L -12.1875 5.21875 L -8.734375 6.703125 L -4.9375 -2.125 L -3.515625 -1.515625 Z M -7.3125 7.3125 " />
			</g>
		</g>
	</g>
	<g fill="#FFFFFF" fill-opacity="1">
		<g transform="translate(115.509278, 327.28932)">
			<g>
				<path d="M -15.125 3.890625 L -9.578125 -5.59375 L -8.21875 -4.796875 L -10.6875 -0.578125 L -5.25 2.59375 L -2.78125 -1.625 L -1.421875 -0.828125 L -6.96875 8.65625 L -8.328125 7.859375 L -5.9375 3.78125 L -11.375 0.609375 L -13.765625 4.6875 Z M -15.125 3.890625 " />
			</g>
		</g>
	</g>
	<g fill="#FFFFFF" fill-opacity="1">
		<g transform="translate(97.248178, 315.87418)">
			<g>
				<path d="M -8.4375 -4.78125 L -7.609375 -5.859375 L -1.296875 -1 L -8 7.703125 L -14.140625 2.96875 L -13.296875 1.875 L -8.40625 5.640625 L -6.359375 2.984375 L -10.71875 -0.375 L -9.90625 -1.4375 L -5.546875 1.921875 L -3.375 -0.890625 Z M -8.4375 -4.78125 " />
			</g>
		</g>
	</g>
	<g fill="#FFFFFF" fill-opacity="1">
		<g transform="translate(82.25244, 303.541561)">
			<g />
		</g>
	</g>
	<g fill="#FFFFFF" fill-opacity="1">
		<g transform="translate(72.921371, 294.280752)">
			<g>
				<path d="M -3.078125 -3.734375 C -2.535156 -3.117188 -2.109375 -2.4375 -1.796875 -1.6875 C -1.484375 -0.9375 -1.34375 -0.265625 -1.375 0.328125 L -2.671875 0.703125 C -2.648438 0.140625 -2.765625 -0.46875 -3.015625 -1.125 C -3.273438 -1.78125 -3.628906 -2.363281 -4.078125 -2.875 C -4.671875 -3.570312 -5.234375 -3.984375 -5.765625 -4.109375 C -6.304688 -4.242188 -6.769531 -4.144531 -7.15625 -3.8125 C -7.4375 -3.570312 -7.582031 -3.28125 -7.59375 -2.9375 C -7.613281 -2.59375 -7.550781 -2.242188 -7.40625 -1.890625 C -7.257812 -1.546875 -7.03125 -1.070312 -6.71875 -0.46875 C -6.332031 0.289062 -6.050781 0.921875 -5.875 1.421875 C -5.695312 1.929688 -5.644531 2.460938 -5.71875 3.015625 C -5.789062 3.566406 -6.09375 4.070312 -6.625 4.53125 C -7.0625 4.90625 -7.5625 5.132812 -8.125 5.21875 C -8.6875 5.300781 -9.28125 5.191406 -9.90625 4.890625 C -10.53125 4.597656 -11.144531 4.101562 -11.75 3.40625 C -12.175781 2.90625 -12.53125 2.363281 -12.8125 1.78125 C -13.101562 1.195312 -13.273438 0.640625 -13.328125 0.109375 L -12.03125 -0.328125 C -11.945312 0.203125 -11.789062 0.710938 -11.5625 1.203125 C -11.332031 1.703125 -11.054688 2.144531 -10.734375 2.53125 C -10.148438 3.195312 -9.59375 3.585938 -9.0625 3.703125 C -8.53125 3.828125 -8.070312 3.722656 -7.6875 3.390625 C -7.394531 3.148438 -7.238281 2.859375 -7.21875 2.515625 C -7.207031 2.171875 -7.273438 1.816406 -7.421875 1.453125 C -7.578125 1.085938 -7.800781 0.617188 -8.09375 0.046875 C -8.488281 -0.710938 -8.773438 -1.347656 -8.953125 -1.859375 C -9.128906 -2.367188 -9.179688 -2.890625 -9.109375 -3.421875 C -9.035156 -3.960938 -8.738281 -4.457031 -8.21875 -4.90625 C -7.789062 -5.28125 -7.289062 -5.507812 -6.71875 -5.59375 C -6.15625 -5.675781 -5.5625 -5.566406 -4.9375 -5.265625 C -4.3125 -4.960938 -3.691406 -4.453125 -3.078125 -3.734375 Z M -3.078125 -3.734375 " />
			</g>
		</g>
	</g>
	<g fill="#FFFFFF" fill-opacity="1">
		<g transform="translate(61.153527, 279.876901)">
			<g>
				<path d="M -10.09375 2.265625 L -7.96875 5.375 L -9.109375 6.140625 L -14.234375 -1.359375 L -13.09375 -2.125 L -10.96875 0.984375 L -3.03125 -4.4375 L -2.15625 -3.15625 Z M -10.09375 2.265625 " />
			</g>
		</g>
	</g>
	<g fill="#FFFFFF" fill-opacity="1">
		<g transform="translate(51.357865, 264.734982)">
			<g>
				<path d="M -2.734375 -5.578125 C -2.054688 -4.273438 -1.898438 -3.066406 -2.265625 -1.953125 C -2.640625 -0.835938 -3.519531 0.078125 -4.90625 0.796875 L -10.46875 3.65625 L -11.203125 2.25 L -5.703125 -0.578125 C -3.609375 -1.660156 -3.03125 -3.117188 -3.96875 -4.953125 C -4.425781 -5.835938 -5.035156 -6.382812 -5.796875 -6.59375 C -6.566406 -6.800781 -7.476562 -6.628906 -8.53125 -6.078125 L -14.03125 -3.25 L -14.734375 -4.609375 L -9.171875 -7.46875 C -7.773438 -8.1875 -6.519531 -8.375 -5.40625 -8.03125 C -4.289062 -7.6875 -3.398438 -6.867188 -2.734375 -5.578125 Z M -2.734375 -5.578125 " />
			</g>
		</g>
	</g>
	<g fill="#FFFFFF" fill-opacity="1">
		<g transform="translate(42.15555, 245.660835)">
			<g>
				<path d="M -10.890625 2.140625 L -12.453125 -2.234375 C -12.835938 -3.316406 -12.960938 -4.359375 -12.828125 -5.359375 C -12.691406 -6.367188 -12.316406 -7.242188 -11.703125 -7.984375 C -11.097656 -8.734375 -10.285156 -9.289062 -9.265625 -9.65625 C -8.253906 -10.019531 -7.269531 -10.101562 -6.3125 -9.90625 C -5.363281 -9.71875 -4.519531 -9.273438 -3.78125 -8.578125 C -3.050781 -7.890625 -2.492188 -7.003906 -2.109375 -5.921875 L -0.546875 -1.546875 Z M -3.359375 -5.375 C -3.648438 -6.207031 -4.070312 -6.878906 -4.625 -7.390625 C -5.1875 -7.910156 -5.820312 -8.238281 -6.53125 -8.375 C -7.238281 -8.507812 -7.976562 -8.441406 -8.75 -8.171875 C -9.519531 -7.898438 -10.132812 -7.488281 -10.59375 -6.9375 C -11.050781 -6.382812 -11.328125 -5.734375 -11.421875 -4.984375 C -11.515625 -4.234375 -11.414062 -3.441406 -11.125 -2.609375 L -10.125 0.1875 L -2.359375 -2.578125 Z M -3.359375 -5.375 " />
			</g>
		</g>
	</g>
	<g fill="#FFFFFF" fill-opacity="1">
		<g transform="translate(35.460173, 224.968133)">
			<g>
				<path d="M -3.375 -9.109375 L -2.046875 -9.390625 L -0.34375 -1.609375 L -11.078125 0.71875 L -12.734375 -6.84375 L -11.390625 -7.125 L -10.078125 -1.09375 L -6.796875 -1.8125 L -7.96875 -7.1875 L -6.65625 -7.46875 L -5.484375 -2.09375 L -2.015625 -2.859375 Z M -3.375 -9.109375 " />
			</g>
		</g>
	</g>
	<g fill="#FFFFFF" fill-opacity="1">
		<g transform="translate(31.832964, 206.000919)">
			<g>
				<path d="M -11.90625 -10.09375 L -0.96875 -11.046875 L -0.84375 -9.765625 L -8.4375 -2.5 L -0.28125 -3.203125 L -0.140625 -1.640625 L -11.078125 -0.6875 L -11.1875 -1.96875 L -3.609375 -9.234375 L -11.765625 -8.53125 Z M -11.90625 -10.09375 " />
			</g>
		</g>
	</g>
	<g fill="#FFFFFF" fill-opacity="1">
		<g transform="translate(30.617485, 184.47873)">
			<g>
				<path d="M -9.46875 -4.1875 L -9.609375 -0.421875 L -10.984375 -0.46875 L -10.65625 -9.546875 L -9.28125 -9.5 L -9.40625 -5.734375 L 0.203125 -5.375 L 0.140625 -3.828125 Z M -9.46875 -4.1875 " />
			</g>
		</g>
	</g>
	<g fill="#FFFFFF" fill-opacity="1">
		<g transform="translate(31.769329, 166.455907)">
			<g>
				<path d="M 0.859375 -4.765625 C 0.734375 -3.953125 0.484375 -3.179688 0.109375 -2.453125 C -0.265625 -1.734375 -0.679688 -1.191406 -1.140625 -0.828125 L -2.265625 -1.578125 C -1.828125 -1.929688 -1.441406 -2.414062 -1.109375 -3.03125 C -0.773438 -3.644531 -0.554688 -4.289062 -0.453125 -4.96875 C -0.316406 -5.875 -0.367188 -6.570312 -0.609375 -7.0625 C -0.847656 -7.550781 -1.222656 -7.832031 -1.734375 -7.90625 C -2.097656 -7.957031 -2.414062 -7.878906 -2.6875 -7.671875 C -2.957031 -7.472656 -3.179688 -7.203125 -3.359375 -6.859375 C -3.546875 -6.523438 -3.765625 -6.046875 -4.015625 -5.421875 C -4.328125 -4.628906 -4.617188 -4 -4.890625 -3.53125 C -5.171875 -3.070312 -5.539062 -2.691406 -6 -2.390625 C -6.46875 -2.085938 -7.046875 -1.988281 -7.734375 -2.09375 C -8.316406 -2.175781 -8.816406 -2.40625 -9.234375 -2.78125 C -9.660156 -3.164062 -9.960938 -3.6875 -10.140625 -4.34375 C -10.328125 -5.007812 -10.351562 -5.800781 -10.21875 -6.71875 C -10.113281 -7.375 -9.929688 -7.992188 -9.671875 -8.578125 C -9.410156 -9.171875 -9.097656 -9.671875 -8.734375 -10.078125 L -7.5625 -9.359375 C -7.90625 -8.960938 -8.191406 -8.515625 -8.421875 -8.015625 C -8.660156 -7.515625 -8.816406 -7.015625 -8.890625 -6.515625 C -9.023438 -5.640625 -8.960938 -4.957031 -8.703125 -4.46875 C -8.453125 -3.988281 -8.070312 -3.707031 -7.5625 -3.625 C -7.195312 -3.570312 -6.878906 -3.648438 -6.609375 -3.859375 C -6.335938 -4.078125 -6.109375 -4.359375 -5.921875 -4.703125 C -5.734375 -5.046875 -5.523438 -5.519531 -5.296875 -6.125 C -4.960938 -6.914062 -4.660156 -7.546875 -4.390625 -8.015625 C -4.117188 -8.484375 -3.753906 -8.863281 -3.296875 -9.15625 C -2.835938 -9.445312 -2.269531 -9.539062 -1.59375 -9.4375 C -1.019531 -9.351562 -0.519531 -9.117188 -0.09375 -8.734375 C 0.332031 -8.359375 0.628906 -7.832031 0.796875 -7.15625 C 0.972656 -6.488281 0.992188 -5.691406 0.859375 -4.765625 Z M 0.859375 -4.765625 " />
			</g>
		</g>
	</g>
	<path stroke-linecap="round" transform="matrix(0.0694181, 0, 0, -0.0694181, 31.646747, 327.090007)" fill="none" stroke-linejoin="round" d="M 1947.858128 1717.517376 C 1936.491309 1718.305176 1925.180762 1719.036704 1919.497353 1727.533682 C 1913.870215 1736.03066 1913.870215 1752.180546 1901.152884 1801.811902 C 1888.379281 1851.499529 1863.000889 1934.668627 1834.752657 2003.37598 C 1806.448153 2072.083333 1775.217538 2126.385214 1744.66218 2150.019193 C 1714.05055 2173.709443 1684.001633 2166.731792 1660.311383 2161.554825 C 1636.621133 2156.377859 1619.345819 2152.945305 1617.601407 2136.739148 C 1615.913265 2120.589262 1629.699753 2091.665773 1641.854371 2070.338921 C 1654.008989 2049.012068 1664.362922 2035.113038 1678.824667 2029.317086 C 1693.286411 2023.577405 1711.743423 2025.884532 1722.716342 2031.11777 C 1733.689261 2036.238465 1737.121815 2044.341544 1733.689261 2061.7294 C 1730.200435 2079.004713 1719.79023 2105.564804 1705.328486 2122.896388 C 1690.923013 2140.227973 1672.466001 2148.331052 1652.82729 2151.14462 C 1633.188578 2154.070732 1612.368168 2151.763606 1607.247473 2140.227973 C 1602.014235 2128.69234 1612.368168 2107.87193 1628.574325 2078.441999 C 1644.724211 2049.012068 1666.670049 2010.860073 1687.434187 1950.818512 C 1708.254598 1890.72068 1727.893309 1808.789553 1744.66218 1749.310705 C 1761.43105 1689.831858 1775.217538 1652.861562 1777.018222 1647.06561 C 1778.650092 1641.32593 1768.35243 1666.704321 1756.197812 1678.296225 C 1744.043194 1689.831858 1730.200435 1687.524732 1716.92039 1695.62781 C 1703.696616 1703.674617 1690.923013 1722.131629 1673.028715 1755.050386 C 1655.134416 1787.969142 1632.006879 1835.293372 1602.63322 1885.543713 C 1573.147017 1935.794054 1537.358421 1988.914236 1502.132537 2024.702833 C 1466.850383 2060.547701 1432.243485 2079.004713 1403.938982 2083.618966 C 1375.69075 2088.233219 1353.688641 2079.004713 1343.897421 2067.46908 C 1334.049929 2055.877176 1336.357056 2042.034417 1345.641833 2020.144851 C 1354.870339 1998.142742 1371.076497 1968.150097 1384.919256 1950.255799 C 1398.762015 1932.3615 1410.297647 1926.62182 1424.140407 1927.747247 C 1438.039437 1928.928946 1454.189323 1936.919482 1458.240862 1949.693085 C 1462.292401 1962.410416 1454.189323 1979.68573 1443.779118 1999.887155 C 1433.425184 2020.144851 1420.707853 2043.216116 1407.990521 2053.57005 C 1395.329461 2063.980255 1382.612129 2061.7294 1368.150385 2058.803288 C 1353.688641 2055.877176 1337.538755 2052.444622 1334.668915 2045.523243 C 1331.799074 2038.545592 1342.209279 2028.191658 1356.614752 2004.501408 C 1371.076497 1980.811157 1389.477237 1943.840861 1410.916633 1897.135617 C 1432.243485 1850.374101 1456.496449 1793.765094 1489.415206 1734.848961 C 1522.277691 1675.989099 1563.918511 1614.765839 1582.994509 1585.279636 C 1602.014235 1555.849705 1598.581681 1558.156832 1585.864349 1565.134483 C 1573.147017 1572.055862 1551.20118 1583.535224 1523.45939 1589.89389 C 1495.773872 1596.308827 1462.292401 1597.434254 1440.909277 1600.92308 C 1419.526154 1604.355634 1410.297647 1610.095314 1399.943714 1623.994345 C 1389.477237 1637.837104 1377.941605 1659.782942 1353.688641 1683.473192 C 1329.491948 1707.163443 1292.521652 1732.541834 1260.165609 1757.357512 C 1227.865838 1782.17319 1200.124048 1806.482426 1192.077241 1822.632312 C 1183.974162 1838.782197 1195.509795 1846.885276 1210.534253 1849.755116 C 1225.50244 1852.681228 1243.959452 1850.374101 1265.398847 1837.600498 C 1286.781971 1824.939438 1310.978664 1801.811902 1313.848504 1784.536588 C 1316.774616 1767.205004 1298.261333 1755.6131 1287.344685 1751.617832 C 1276.315495 1747.566293 1272.882941 1751.055118 1258.98391 1762.590751 C 1245.141151 1774.126383 1220.888187 1793.765094 1205.301015 1806.482426 C 1189.713843 1819.199758 1182.792463 1824.939438 1180.485337 1837.094056 C 1178.17821 1849.192402 1180.485337 1867.649415 1193.202669 1878.05962 C 1205.92 1888.413553 1229.047537 1890.72068 1258.421196 1887.288126 C 1287.907399 1883.855572 1323.695996 1874.627066 1365.280545 1846.885276 C 1406.865093 1819.199758 1454.189323 1772.944684 1468.032082 1761.409052 C 1481.931113 1749.873419 1462.292401 1772.944684 1436.295024 1794.946793 C 1410.297647 1816.83636 1377.941605 1837.600498 1332.361788 1868.2684 C 1286.781971 1898.823758 1227.865838 1939.28288 1158.539499 1990.095935 C 1089.269432 2040.90899 1009.58916 2102.075978 915.447143 2160.373127 C 821.305127 2218.726546 712.757637 2274.153854 633.865164 2315.175689 C 555.028963 2356.141253 505.847778 2382.757615 461.393389 2423.104194 C 450.589284 2432.951685 440.066536 2443.530704 429.99396 2455.066337 M 429.99396 3002.868208 C 449.351314 2996.959713 471.128337 2983.510854 496.225372 2964.1535 C 546.475713 2925.495062 610.0061 2863.146375 714.558321 2789.205783 C 818.998 2715.377734 964.515786 2629.90151 1070.193435 2580.213883 C 1175.871084 2530.526255 1241.708597 2516.739768 1313.848504 2506.892276 C 1386.044683 2497.044785 1464.599528 2491.248833 1544.842514 2494.118673 C 1625.141771 2497.044785 1707.12917 2508.580418 1781.069762 2525.912002 C 1854.89781 2543.243587 1920.735323 2566.314852 1976.162631 2588.879675 C 2031.589939 2611.388227 2076.663314 2633.334064 2108.963085 2635.641191 C 2141.319128 2637.948317 2160.957839 2620.616733 2194.439309 2594.056642 C 2227.977051 2567.496551 2275.301281 2531.707954 2320.937369 2502.840737 C 2366.517185 2473.917249 2410.408861 2452.027682 2439.276078 2434.696098 C 2468.143295 2417.364513 2482.042326 2404.703453 2510.290558 2393.674263 C 2538.595061 2382.757615 2581.305038 2373.529109 2609.665813 2357.885666 C 2637.914045 2342.298494 2651.756804 2320.352656 2666.781262 2293.792565 C 2681.80572 2267.232475 2698.011877 2236.058131 2728.004522 2198.525121 C 2758.053438 2160.992112 2801.888842 2117.156708 2834.807599 2078.441999 C 2867.726355 2039.783562 2889.672193 2006.24582 2913.925157 1970.457224 C 2938.178121 1934.668627 2964.738212 1896.516632 2988.372191 1864.216861 C 3012.118713 1831.860818 3032.882852 1805.300727 3036.934391 1789.150841 C 3040.929659 1772.944684 3028.268599 1767.205004 3008.629887 1766.079576 C 2989.047448 1764.897877 2962.431086 1768.386703 2928.386901 1789.150841 C 2894.286446 1809.91498 2852.758169 1848.010704 2818.094999 1889.595252 C 2783.43183 1931.179801 2755.746312 1976.196904 2730.874362 2016.03704 C 2706.058684 2055.877176 2684.112847 2090.540346 2669.651102 2119.970277 C 2655.245629 2149.456479 2648.32425 2173.709443 2635.606918 2191.041028 C 2622.889587 2208.372613 2604.432574 2218.726546 2581.867752 2228.011324 C 2559.3592 2237.183558 2532.855381 2245.286637 2493.577958 2260.873809 C 2454.300536 2276.460981 2402.362054 2299.588517 2359.595806 2322.659783 C 2316.885829 2345.731048 2283.404359 2368.858585 2253.918157 2389.622723 C 2224.488226 2410.443133 2199.109834 2428.956417 2174.800598 2443.924604 C 2150.603905 2459.005333 2127.476369 2470.484694 2088.198946 2468.796553 C 2048.921524 2467.05214 1993.494216 2452.027682 1953.65408 2443.418161 C 1913.870215 2434.696098 1889.504708 2432.388971 1872.285666 2437.565938 C 1854.89781 2442.799176 1844.543877 2455.460236 1833.570958 2467.05214 C 1822.598039 2478.531502 1811.006135 2488.941707 1797.782361 2492.430532 C 1784.502316 2495.919358 1769.477858 2492.430532 1783.376888 2497.044785 C 1797.163376 2501.71531 1839.929624 2514.37637 1886.691139 2529.400828 C 1933.452655 2544.369015 1984.26571 2561.756871 2022.980419 2573.292503 C 2061.638856 2584.828136 2088.198946 2590.567817 2121.736688 2577.906756 C 2155.161887 2565.189425 2195.621008 2533.95881 2241.257096 2506.273291 C 2286.836913 2478.531502 2337.649968 2454.334809 2392.514562 2432.951685 C 2447.379157 2411.624832 2506.239019 2393.111549 2553.056806 2371.10944 C 2599.818321 2349.276145 2634.425219 2323.841482 2658.734455 2301.895644 C 2682.987419 2279.949806 2696.830178 2261.492794 2733.800474 2242.416797 C 2770.714498 2223.340799 2830.756059 2203.75836 2890.853892 2185.864061 C 2950.839182 2167.913491 3010.993285 2151.763606 3056.516831 2132.687608 C 3102.20919 2113.611611 3133.383534 2091.665773 3160.506338 2063.980255 C 3187.629143 2036.238465 3210.75668 2002.756995 3256.336496 1979.123016 C 3301.972584 1955.432765 3370.060953 1941.590006 3441.694418 1925.383849 C 3513.271611 1909.233964 3588.337631 1890.72068 3641.457812 1882.111159 C 3694.634265 1873.445367 3725.808609 1874.627066 3762.159919 1855.494797 C 3763.960603 1854.594455 3765.705016 1853.58157 3767.5057 1852.624957 M 3767.5057 1324.574339 C 3735.993728 1328.457064 3702.118358 1335.378444 3667.51146 1344.550678 C 3597.622408 1362.951419 3524.863515 1390.693209 3452.667337 1408.024794 C 3380.527429 1425.356378 3308.893964 1432.277758 3226.850294 1430.533345 C 3144.919167 1428.845204 3052.521563 1418.434999 2950.839182 1409.769206 C 2849.269343 1401.103414 2738.414727 1394.238306 2646.017123 1379.776562 C 2553.619519 1365.314817 2479.735199 1343.36898 2432.917412 1329.52622 C 2386.155897 1315.62719 2366.517185 1309.887509 2327.239763 1339.936425 C 2287.962341 1369.92907 2229.102479 1435.766583 2180.652822 1484.21624 C 2132.090622 1532.77844 2093.994898 1563.952784 2061.076142 1587.586763 C 2028.157385 1611.277013 2000.471867 1627.426899 1980.833156 1648.810023 C 1961.194445 1670.136875 1949.658812 1696.753238 1943.806589 1741.207627 C 1938.066908 1785.662016 1938.066908 1848.010704 1933.452655 1897.698331 C 1928.838402 1947.329687 1919.609896 1984.356254 1909.199691 2018.344167 C 1898.789486 2052.444622 1887.253853 2083.618966 1879.150775 2104.945819 C 1871.103967 2126.385214 1866.545986 2137.864575 1876.899919 2143.660527 C 1887.253853 2149.456479 1912.632245 2149.456479 1929.401116 2145.967654 C 1946.169987 2142.5351 1954.273065 2135.61372 1961.81343 2119.970277 C 1969.241252 2104.439376 1976.162631 2080.130141 1979.088743 2062.292114 C 1982.014855 2044.341544 1980.833156 2032.805911 1968.509724 2026.559788 C 1956.186292 2020.257394 1932.721127 2019.357052 1915.333271 2034.944223 C 1898.001686 2050.531395 1886.859953 2082.662353 1881.289087 2105.677346 C 1875.718221 2128.69234 1875.718221 2142.5351 1889.504708 2151.763606 C 1903.46001 2160.992112 1931.145529 2165.606365 1959.393761 2157.559558 C 1987.754535 2149.456479 2016.621753 2128.69234 2039.130304 2084.800665 C 2061.638856 2040.90899 2077.788741 1973.889778 2093.994898 1918.46247 C 2110.144784 1863.035162 2126.350941 1819.199758 2129.16451 1782.17319 C 2132.090622 1745.259166 2121.736688 1715.21025 2114.759037 1709.470569 C 2107.837658 1703.674617 2104.348832 1722.131629 2107.837658 1739.463214 C 2111.270212 1756.794799 2121.736688 1772.944684 2147.11508 1760.846338 C 2172.549743 1748.69172 2212.952593 1708.28887 2253.918157 1667.829749 C 2294.939992 1627.426899 2336.524541 1587.024049 2368.880583 1555.286992 C 2401.236626 1523.493663 2424.307891 1500.422397 2427.12146 1492.319319 C 2430.047572 1484.21624 2412.715987 1491.193891 2399.435942 1507.906491 C 2386.155897 1524.675362 2376.92739 1551.235452 2383.229785 1564.515498 C 2389.644722 1577.795543 2411.59056 1577.795543 2443.890331 1572.055862 C 2476.302645 1566.25991 2518.95635 1554.668006 2531.110968 1548.365612 C 2543.209314 1542.006946 2524.752302 1540.825247 2504.550877 1546.621199 C 2484.349452 1552.36088 2462.403615 1565.134483 2465.273455 1578.920971 C 2468.143295 1592.76373 2495.885085 1607.844459 2529.98554 1630.915725 C 2563.973453 1654.043261 2604.432574 1685.217605 2634.425219 1710.033283 C 2664.474135 1734.848961 2684.112847 1753.362245 2700.319004 1764.897877 C 2716.468889 1776.43351 2729.12995 1781.047763 2750.569345 1770.637558 C 2771.896197 1760.227353 2801.888842 1734.848961 2830.193346 1722.694343 C 2858.497849 1710.652268 2885.05794 1711.777696 2898.337985 1719.824503 C 2911.618031 1727.983853 2911.618031 1742.95204 2904.584108 1763.322279 C 2897.606457 1783.692518 2883.538613 1809.464809 2868.514155 1823.926553 C 2853.489696 1838.332026 2837.564896 1841.426952 2827.210963 1841.258138 C 2816.9133 1841.089324 2812.299047 1837.600498 2805.996653 1833.605231 C 2799.581716 1829.553691 2791.534909 1824.939438 2796.149162 1811.659393 C 2800.763415 1798.379348 2818.094999 1776.43351 2834.86387 1758.87684 C 2851.689012 1741.263898 2867.951441 1728.040124 2872.790779 1721.625187 C 2877.573847 1715.153978 2870.933824 1715.491607 2852.364269 1724.438756 C 2833.850985 1733.329634 2803.464441 1750.830033 2765.143632 1783.242347 C 2726.822823 1815.654661 2680.680293 1863.035162 2640.840156 1914.467202 C 2601.00002 1965.84297 2567.51855 2021.270278 2536.287935 2053.57005 C 2505.113591 2085.926093 2476.302645 2095.154599 2424.307891 2113.105168 C 2372.313137 2130.999467 2297.247118 2157.559558 2238.94997 2178.88641 C 2180.652822 2200.213263 2139.012001 2216.41942 2103.44849 2212.36788 C 2067.884979 2208.372613 2038.342505 2184.232191 2037.160806 2181.306079 C 2036.035378 2178.379968 2063.214454 2196.83698 2124.2689 2194.473582 C 2185.210803 2192.166455 2279.915534 2169.09519 2349.748314 2135.61372 C 2419.693638 2102.075978 2464.710741 2058.184303 2499.936624 2008.552947 C 2535.162507 1958.865319 2560.540899 1903.438011 2587.719975 1864.779574 C 2614.842779 1826.064866 2643.653725 1804.119028 2669.651102 1793.765094 C 2695.648479 1783.354889 2718.776016 1784.536588 2741.847281 1785.662016 " stroke="#FFFFFF" stroke-width="13.808" stroke-opacity="1" stroke-miterlimit="22.926001" />
	<path stroke-linecap="round" transform="matrix(0.0694181, 0, 0, -0.0694181, 31.646747, 327.090007)" fill="none" stroke-linejoin="round" d="M 1585.864349 1565.134483 C 1595.880654 1547.408999 1605.840688 1529.683514 1624.185158 1520.792636 C 1642.417085 1511.95803 1669.033447 1511.95803 1712.868851 1504.473937 C 1756.760526 1496.933572 1817.983786 1481.909114 1881.457901 1462.889388 C 1945.044559 1443.81339 2010.825801 1420.742125 2057.024603 1405.154953 C 2103.223405 1389.51151 2129.783495 1381.464703 2126.857384 1391.874908 C 2124.043815 1402.285113 2091.687772 1431.15233 2043.744557 1465.196514 C 1995.801343 1499.240698 1932.327227 1538.518121 1885.228084 1569.692465 C 1838.185211 1600.92308 1807.573581 1623.994345 1838.804196 1601.429522 C 1869.97854 1578.920971 1962.938857 1510.832602 2025.568902 1464.014815 C 2088.198946 1417.309571 2120.554989 1391.874908 2147.677794 1368.747371 C 2174.800598 1345.676106 2196.746436 1324.855696 2222.743813 1315.064476 C 2248.74119 1305.216985 2278.790106 1306.342412 2296.853219 1312.36345 C 2314.916331 1318.384487 2321.106183 1329.076049 2327.239763 1339.936425 " stroke="#FFFFFF" stroke-width="13.807" stroke-opacity="1" stroke-miterlimit="22.926001" />
	<path stroke-linecap="round" transform="matrix(0.0694181, 0, 0, -0.0694181, 31.646747, 327.090007)" fill="none" stroke-linejoin="round" d="M 2484.349452 2029.317086 C 2455.763592 1990.883734 2427.290274 1952.33784 2383.792499 1922.57028 C 2340.238452 1892.74645 2281.659946 1871.700954 2236.699115 1856.001239 C 2191.850826 1840.245253 2160.676482 1829.835048 2129.502138 1819.481115 " stroke="#FFFFFF" stroke-width="13.807" stroke-opacity="1" stroke-miterlimit="22.926001" />
	<path stroke-linecap="round" transform="matrix(0.0694181, 0, 0, -0.0694181, 31.646747, 327.090007)" fill="none" stroke-linejoin="round" d="M 1196.691494 2029.035729 C 1233.042805 2008.834304 1269.450387 1988.632879 1299.555574 1977.209789 C 1329.660762 1965.84297 1353.576098 1963.254487 1377.435162 1960.722275 " stroke="#FFFFFF" stroke-width="13.807" stroke-opacity="1" stroke-miterlimit="22.926001" />
	<path stroke-linecap="round" transform="matrix(0.0694181, 0, 0, -0.0694181, 31.646747, 327.090007)" fill="none" stroke-linejoin="round" d="M 1538.315034 1982.55557 C 1563.580883 1986.550838 1588.846732 1990.489834 1609.273242 1996.060701 C 1629.756024 2001.575296 1645.455739 2008.834304 1661.099182 2016.03704 " stroke="#FFFFFF" stroke-width="13.807" stroke-opacity="1" stroke-miterlimit="22.926001" />
	<path stroke-linecap="round" transform="matrix(0.0694181, 0, 0, -0.0694181, 31.646747, 327.090007)" fill="none" stroke-linejoin="round" d="M 1797.444733 2081.762011 C 1825.411608 2089.752546 1853.378483 2097.686811 1881.289087 2105.677346 " stroke="#FFFFFF" stroke-width="13.807" stroke-opacity="1" stroke-miterlimit="22.926001" />
	<path stroke-linecap="round" transform="matrix(0.0694181, 0, 0, -0.0694181, 31.646747, 327.090007)" fill="none" stroke-linejoin="round" d="M 1930.639086 1922.288923 C 1906.554936 1938.832709 1882.527057 1955.376494 1867.727685 1965.730428 C 1853.040855 1976.084361 1847.638803 1980.248443 1842.293022 1984.468797 " stroke="#FFFFFF" stroke-width="13.807" stroke-opacity="1" stroke-miterlimit="22.926001" />
	<path stroke-linecap="round" transform="matrix(0.0694181, 0, 0, -0.0694181, 31.646747, 327.090007)" fill="none" stroke-linejoin="round" d="M 1680.231451 1742.16424 C 1696.268794 1740.194742 1712.362408 1738.225244 1723.110242 1739.463214 C 1733.914346 1740.644913 1739.260127 1744.977809 1744.66218 1749.310705 " stroke="#FFFFFF" stroke-width="13.807" stroke-opacity="1" stroke-miterlimit="22.926001" />
	<path stroke-linecap="round" transform="matrix(0.0694181, 0, 0, -0.0694181, 31.646747, 327.090007)" fill="none" stroke-linejoin="round" d="M 1909.818676 1764.447706 C 1920.17261 1766.529747 1930.526543 1768.555517 1940.936748 1770.637558 " stroke="#FFFFFF" stroke-width="13.807" stroke-opacity="1" stroke-miterlimit="22.926001" />
	<path stroke-linecap="round" transform="matrix(0.0694181, 0, 0, -0.0694181, 31.646747, 327.090007)" fill="none" stroke-linejoin="round" d="M 2980.719284 1869.112471 C 2969.408737 1879.128776 2962.149729 1877.834534 2954.665635 1874.514523 C 2947.125271 1871.13824 2939.35982 1865.623645 2939.584906 1855.21344 C 2939.866263 1844.859506 2948.30697 1829.553691 2958.379546 1817.286531 C 2968.452123 1805.01937 2980.325384 1795.734593 2989.55389 1790.163726 C 2998.838668 1784.536588 3005.422419 1782.510819 3012.906512 1782.904718 C 3020.390606 1783.411161 3028.606227 1786.22473 3030.406911 1792.245767 C 3032.151324 1798.323076 3027.424528 1807.439039 3017.351951 1822.688583 C 3007.279374 1837.938127 2991.973559 1859.152436 2980.719284 1869.112471 Z M 2980.719284 1869.112471 " stroke="#FFFFFF" stroke-width="13.807" stroke-opacity="1" stroke-miterlimit="22.926001" />
	<path fill="#fbfaf9" d="M 185.734375 182.261719 C 186.542969 180.640625 187.351562 179.832031 188.972656 179.832031 C 190.761719 179.832031 192.210938 181.28125 192.210938 183.070312 C 192.210938 186.308594 188.972656 189.550781 185.734375 192.789062 C 182.492188 189.550781 179.253906 186.308594 179.253906 183.070312 C 179.253906 181.28125 180.703125 179.832031 182.492188 179.832031 C 184.113281 179.832031 184.921875 180.640625 185.734375 182.261719 " fill-opacity="1" fill-rule="nonzero" />
</svg>
