<svg xmlns="http://www.w3.org/2000/svg" xmlns:xlink="http://www.w3.org/1999/xlink" width="500" zoomAndPan="magnify" viewBox="0 0 375 374.999991" height="500" preserveAspectRatio="xMidYMid meet" version="1.0"><defs><g/></defs><path fill="#ffffff" d="M 371.300781 187.480469 C 371.300781 85.957031 289.003906 3.65625 187.480469 3.65625 C 85.957031 3.65625 3.65625 85.957031 3.65625 187.480469 C 3.65625 289.003906 85.957031 371.300781 187.480469 371.300781 C 289.003906 371.300781 371.300781 289.003906 371.300781 187.480469 " fill-opacity="1" fill-rule="nonzero"/><path fill="#9c0067" d="M 187.480469 7.3125 C 88.136719 7.3125 7.3125 88.136719 7.3125 187.480469 C 7.3125 286.824219 88.136719 367.648438 187.480469 367.648438 C 286.824219 367.648438 367.648438 286.824219 367.648438 187.480469 C 367.648438 88.136719 286.824219 7.3125 187.480469 7.3125 Z M 187.480469 374.957031 C 137.402344 374.957031 90.320312 355.457031 54.910156 320.046875 C 19.5 284.636719 0 237.558594 0 187.480469 C 0 137.402344 19.5 90.320312 54.910156 54.910156 C 90.320312 19.5 137.402344 0 187.480469 0 C 237.558594 0 284.636719 19.5 320.046875 54.910156 C 355.457031 90.320312 374.957031 137.402344 374.957031 187.480469 C 374.957031 237.558594 355.457031 284.636719 320.046875 320.046875 C 284.636719 355.457031 237.558594 374.957031 187.480469 374.957031 " fill-opacity="1" fill-rule="nonzero"/><path fill="#ffffff" d="M 355.84375 187.480469 C 355.84375 94.492188 280.464844 19.113281 187.480469 19.113281 C 94.492188 19.113281 19.113281 94.492188 19.113281 187.480469 C 19.113281 280.464844 94.492188 355.84375 187.480469 355.84375 C 280.464844 355.84375 355.84375 280.464844 355.84375 187.480469 " fill-opacity="1" fill-rule="nonzero"/><path fill="#ffffff" d="M 343.730469 187.480469 C 343.730469 101.183594 273.773438 31.230469 187.480469 31.230469 C 101.183594 31.230469 31.230469 101.183594 31.230469 187.480469 C 31.230469 273.773438 101.183594 343.730469 187.480469 343.730469 C 273.773438 343.730469 343.730469 273.773438 343.730469 187.480469 " fill-opacity="1" fill-rule="nonzero"/><path fill="#9c0067" d="M 305.671875 207.113281 C 298.746094 197.59375 281.226562 206.484375 252.207031 221.222656 L 249.277344 222.707031 C 247.476562 223.621094 246.753906 225.820312 247.667969 227.617188 C 248.582031 229.421875 250.78125 230.140625 252.582031 229.226562 L 255.515625 227.738281 C 268.144531 221.328125 279.046875 215.789062 287.222656 212.808594 C 296.890625 209.285156 299.210938 210.660156 299.761719 211.414062 C 300.722656 212.746094 301.003906 214.023438 300.660156 215.5625 C 299.546875 220.535156 291.976562 229.898438 262.207031 246.269531 C 232.75 262.460938 210.890625 270.847656 198.972656 270.507812 C 187.304688 270.179688 177.042969 267.382812 163.542969 260.855469 C 158.6875 258.503906 154.359375 256.300781 150.320312 254.125 C 150.296875 254.113281 150.273438 254.097656 150.25 254.089844 C 150.136719 254.023438 150.023438 253.960938 149.910156 253.898438 L 148.351562 253.054688 C 137.140625 247.210938 122.515625 245.371094 109.683594 244.34375 C 107.667969 244.191406 105.910156 245.683594 105.75 247.695312 C 105.585938 249.707031 107.089844 251.472656 109.097656 251.632812 C 121.199219 252.601562 134.921875 254.296875 144.902344 259.496094 L 146.433594 260.332031 C 146.539062 260.390625 146.648438 260.445312 146.753906 260.503906 C 146.832031 260.554688 146.914062 260.601562 146.996094 260.640625 C 151.089844 262.84375 155.464844 265.066406 160.363281 267.433594 C 174.859375 274.449219 185.984375 277.457031 198.765625 277.8125 C 199.050781 277.824219 199.339844 277.828125 199.632812 277.828125 C 213.128906 277.828125 235.355469 269.371094 265.726562 252.675781 C 292.277344 238.078125 305.640625 226.792969 307.792969 217.15625 C 308.601562 213.542969 307.886719 210.164062 305.671875 207.113281 " fill-opacity="1" fill-rule="nonzero"/><path fill="#9c0067" d="M 110.203125 199.828125 C 115.90625 198.53125 121.960938 196.824219 128.710938 194.601562 C 137.179688 191.8125 147.34375 189.164062 158.484375 190.621094 C 166.171875 191.632812 173.132812 196.117188 180.5 200.863281 C 186.136719 204.5 191.96875 208.257812 198.777344 211.003906 C 222.28125 220.480469 237.769531 234.457031 235.914062 240.617188 C 235.375 242.398438 234.625 242.976562 234.035156 243.277344 C 230.28125 245.207031 220.632812 241.90625 209.464844 238.085938 C 206.578125 237.101562 203.824219 236.121094 201.148438 235.167969 C 187.910156 230.460938 176.476562 226.398438 160.050781 225.089844 C 158.039062 224.921875 156.277344 226.429688 156.117188 228.441406 C 155.957031 230.453125 157.457031 232.214844 159.472656 232.378906 C 174.9375 233.609375 185.949219 237.523438 198.699219 242.058594 C 201.402344 243.019531 204.183594 244.007812 207.097656 245.003906 C 217.039062 248.402344 224.996094 251.125 231.101562 251.125 C 233.464844 251.125 235.554688 250.71875 237.371094 249.785156 C 240.046875 248.410156 241.910156 246.035156 242.910156 242.730469 C 247.210938 228.460938 220.511719 211.878906 201.511719 204.21875 C 195.347656 201.734375 189.8125 198.167969 184.464844 194.71875 C 176.382812 189.515625 168.753906 184.597656 159.4375 183.375 C 146.761719 181.714844 135.136719 184.789062 126.421875 187.660156 C 119.898438 189.804688 114.0625 191.453125 108.582031 192.695312 C 106.617188 193.140625 105.382812 195.101562 105.828125 197.070312 C 106.277344 199.039062 108.234375 200.277344 110.203125 199.828125 " fill-opacity="1" fill-rule="nonzero"/><path fill="#9c0067" d="M 125.683594 152.25 C 127.480469 151.335938 128.203125 149.136719 127.289062 147.339844 C 126.375 145.539062 124.175781 144.820312 122.375 145.730469 L 119.449219 147.214844 C 106.816406 153.628906 95.914062 159.167969 87.738281 162.148438 C 78.070312 165.671875 75.75 164.296875 75.199219 163.542969 C 74.230469 162.214844 73.953125 160.933594 74.296875 159.394531 C 75.410156 154.421875 82.980469 145.058594 112.75 128.691406 C 142.207031 112.496094 164.082031 104.117188 175.988281 104.453125 C 187.65625 104.777344 197.917969 107.574219 211.414062 114.101562 C 216.261719 116.449219 220.589844 118.652344 224.640625 120.832031 C 224.660156 120.847656 224.679688 120.859375 224.703125 120.871094 C 224.816406 120.933594 224.9375 120.996094 225.054688 121.0625 L 226.605469 121.902344 C 237.820312 127.746094 252.445312 129.585938 265.273438 130.613281 C 267.292969 130.777344 269.046875 129.273438 269.210938 127.261719 C 269.371094 125.25 267.871094 123.488281 265.859375 123.328125 C 253.757812 122.359375 240.039062 120.660156 230.058594 115.460938 L 228.53125 114.628906 C 228.421875 114.570312 228.3125 114.515625 228.210938 114.453125 C 228.128906 114.40625 228.046875 114.359375 227.960938 114.320312 C 223.859375 112.113281 219.488281 109.890625 214.59375 107.523438 C 200.101562 100.507812 188.972656 97.503906 176.191406 97.140625 C 162.785156 96.769531 140.261719 105.226562 109.230469 122.28125 C 82.679688 136.878906 69.316406 148.164062 67.160156 157.804688 C 66.355469 161.417969 67.070312 164.792969 69.285156 167.84375 C 71.269531 170.570312 74.125 171.789062 77.875 171.789062 C 87.199219 171.789062 102.050781 164.25 122.757812 153.738281 L 125.683594 152.25 " fill-opacity="1" fill-rule="nonzero"/><path fill="#9c0067" d="M 140.925781 131.679688 C 144.675781 129.753906 154.324219 133.054688 165.492188 136.871094 C 168.382812 137.859375 171.132812 138.835938 173.8125 139.789062 C 187.050781 144.496094 198.484375 148.558594 214.90625 149.867188 C 216.910156 150.027344 218.683594 148.53125 218.84375 146.515625 C 219.003906 144.503906 217.5 142.742188 215.488281 142.582031 C 200.027344 141.351562 189.011719 137.433594 176.265625 132.898438 C 173.554688 131.9375 170.773438 130.953125 167.859375 129.953125 C 154.070312 125.238281 144.105469 121.832031 137.585938 125.175781 C 134.90625 126.546875 133.046875 128.925781 132.046875 132.230469 C 127.746094 146.496094 154.449219 163.074219 173.449219 170.738281 C 179.609375 173.222656 185.144531 176.785156 190.496094 180.238281 C 198.574219 185.441406 206.203125 190.359375 215.523438 191.585938 C 217.996094 191.910156 220.429688 192.054688 222.8125 192.054688 C 232.628906 192.054688 241.527344 189.609375 248.535156 187.300781 C 255.0625 185.15625 260.894531 183.503906 266.375 182.261719 C 268.34375 181.816406 269.578125 179.859375 269.128906 177.886719 C 268.683594 175.917969 266.726562 174.683594 264.753906 175.132812 C 259.050781 176.425781 252.996094 178.132812 246.25 180.355469 C 237.777344 183.144531 227.617188 185.796875 216.472656 184.335938 C 208.785156 183.324219 201.828125 178.839844 194.457031 174.089844 C 188.816406 170.457031 182.988281 166.699219 176.183594 163.957031 C 152.675781 154.476562 137.1875 140.5 139.050781 134.339844 C 139.585938 132.558594 140.332031 131.984375 140.925781 131.679688 " fill-opacity="1" fill-rule="nonzero"/><path fill="#bd987a" d="M 105.738281 249.988281 C 105.738281 252.648438 103.574219 254.8125 100.910156 254.8125 L 89.113281 254.8125 C 86.453125 254.8125 84.289062 252.648438 84.289062 249.988281 L 84.289062 195.976562 C 84.289062 193.316406 86.453125 191.152344 89.113281 191.152344 L 100.910156 191.152344 C 103.574219 191.152344 105.738281 193.316406 105.738281 195.976562 Z M 100.910156 183.839844 L 89.113281 183.839844 C 82.421875 183.839844 76.976562 189.285156 76.976562 195.976562 L 76.976562 249.988281 C 76.976562 256.679688 82.421875 262.125 89.113281 262.125 L 100.910156 262.125 C 107.605469 262.125 113.050781 256.679688 113.050781 249.988281 L 113.050781 195.976562 C 113.050781 189.285156 107.605469 183.839844 100.910156 183.839844 " fill-opacity="1" fill-rule="nonzero"/><path fill="#bd987a" d="M 95.011719 200.496094 C 92.996094 200.496094 91.355469 202.132812 91.355469 204.152344 L 91.355469 205.359375 C 91.355469 207.375 92.996094 209.015625 95.011719 209.015625 C 97.03125 209.015625 98.667969 207.375 98.667969 205.359375 L 98.667969 204.152344 C 98.667969 202.132812 97.03125 200.496094 95.011719 200.496094 " fill-opacity="1" fill-rule="nonzero"/><path fill="#bd987a" d="M 290.671875 178.980469 C 290.671875 181.644531 288.503906 183.808594 285.84375 183.808594 L 274.046875 183.808594 C 271.386719 183.808594 269.21875 181.644531 269.21875 178.980469 L 269.21875 124.96875 C 269.21875 122.308594 271.386719 120.144531 274.046875 120.144531 L 285.84375 120.144531 C 288.503906 120.144531 290.671875 122.308594 290.671875 124.96875 Z M 285.84375 112.832031 L 274.046875 112.832031 C 267.355469 112.832031 261.910156 118.277344 261.910156 124.96875 L 261.910156 178.980469 C 261.910156 185.675781 267.355469 191.117188 274.046875 191.117188 L 285.84375 191.117188 C 292.539062 191.117188 297.980469 185.675781 297.980469 178.980469 L 297.980469 124.96875 C 297.980469 118.277344 292.539062 112.832031 285.84375 112.832031 " fill-opacity="1" fill-rule="nonzero"/><g fill="#ffffff" fill-opacity="1"><g transform="translate(304.331908, 367.477533)"><g><path d="M 1.09375 -22.390625 L 1.09375 -19.84375 L 8.578125 -19.84375 L 8.578125 0 L 11.5 0 L 11.5 -19.84375 L 18.984375 -19.84375 L 18.984375 -22.390625 Z M 1.09375 -22.390625 "/></g></g></g><g fill="#ffffff" fill-opacity="1"><g transform="translate(324.420228, 367.477533)"><g><path d="M 5.40625 -19.265625 L 5.40625 -22.390625 L 2.515625 -22.390625 L 2.515625 -19.265625 Z M 5.40625 0 L 5.40625 -16.21875 L 2.515625 -16.21875 L 2.515625 0 Z M 5.40625 0 "/></g></g></g><g fill="#ffffff" fill-opacity="1"><g transform="translate(332.342382, 367.477533)"><g><path d="M 10.28125 -13.984375 L 10.28125 -16.21875 L 6.578125 -16.09375 L 6.578125 -21.1875 L 3.671875 -21.1875 L 3.671875 -16.125 L 1.25 -16.21875 L 1.25 -13.984375 L 3.671875 -14.109375 L 3.671875 -3.609375 C 3.671875 -1.09375 4.78125 0 7.296875 0 L 10.25 0 L 10.25 -2.421875 L 8.140625 -2.421875 C 6.953125 -2.421875 6.578125 -2.796875 6.578125 -4 L 6.578125 -14.109375 Z M 10.28125 -13.984375 "/></g></g></g><g fill="#ffffff" fill-opacity="1"><g transform="translate(343.565437, 367.477533)"><g><path d="M 5.40625 0 L 5.40625 -22.390625 L 2.515625 -22.390625 L 2.515625 0 Z M 5.40625 0 "/></g></g></g><g fill="#ffffff" fill-opacity="1"><g transform="translate(351.487592, 367.477533)"><g><path d="M 16.625 -8.484375 C 16.625 -13.546875 13.765625 -16.59375 9.21875 -16.59375 C 4.375 -16.59375 1.578125 -13.140625 1.578125 -8.171875 C 1.578125 -3.171875 4.4375 0.375 9.28125 0.375 C 12.734375 0.375 15.375 -1.453125 16.40625 -4.625 L 13.765625 -4.9375 C 13.015625 -3.046875 11.625 -1.984375 9.375 -1.984375 C 6.4375 -1.984375 4.5625 -3.765625 4.46875 -7.421875 L 16.625 -7.421875 Z M 9.25 -14.234375 C 11.890625 -14.234375 13.546875 -12.578125 13.921875 -9.5 L 4.5 -9.5 C 4.78125 -12.671875 6.671875 -14.234375 9.25 -14.234375 Z M 9.25 -14.234375 "/></g></g></g></svg>