<svg viewBox="0 0 301 452" fill="none" xmlns="http://www.w3.org/2000/svg">
	<path d="M289.217 310.422C289.217 380.329 228.063 437 152.626 437C77.1886 437 15.2168 379.485 15.2168 309.578C15.2168 239.671 76.3707 183 151.808 183C227.245 183 289.217 240.515 289.217 310.422Z" fill="#EABD18" />
	<path d="M224.226 197.674C250.726 213.705 269.52 234.253 282.733 260.754C294.428 287.709 296.392 317.414 288.328 345.35C280.263 373.286 262.61 397.924 238.055 415.518C213.499 433.112 183.384 442.698 152.29 442.819C121.196 442.94 90.8241 433.588 65.7944 416.187C40.7646 398.786 22.4463 374.287 13.6256 346.417C4.80497 318.546 5.96458 288.83 16.9281 261.786C27.8916 234.743 59.1182 202.652 85.8968 189.493L82.9836 199.998C58.1583 214.396 34.7836 238.96 24.4364 264.483C14.0892 290.006 12.9948 318.052 21.3196 344.356C29.6444 370.659 46.9329 393.781 70.5555 410.204C94.1782 426.627 122.842 435.452 152.188 435.338C181.535 435.224 209.957 426.177 233.132 409.572C256.307 392.968 272.967 369.714 280.579 343.349C288.19 316.983 286.336 288.948 275.298 263.508C260.42 231.082 234.865 212.856 226.298 206.579C217.732 200.302 218.827 196.734 216.503 193.137L224.226 197.674Z" fill="#100830" />
	<path d="M255.554 174.195C253.445 167.447 251.241 164.449 245.431 159.011C243.386 158.263 242.536 158.238 242.901 160.698C248.384 167.447 250.583 169.583 252.602 175.039C254.71 182.631 255.475 183.994 255.554 189.801C257.205 184.925 257.663 182.631 255.554 174.195Z" fill="white" stroke="white" />
	<path d="M98.2324 126.185L78.8307 138.838L87.2662 127.028L96.1235 116.906L116.369 97.9258C113.251 108.886 110.148 114.283 100.341 121.545L107.511 118.171C101.673 136.679 97.1255 146.205 86.0009 161.192L92.7493 157.818L90.6404 168.784C87.752 181.55 86.3107 188.887 81.7831 199.996C80.6597 213.039 76.9053 218.601 71.2387 229.098C76.2191 225.11 77.8962 222.794 79.2525 218.554C79.0717 235.251 76.0307 242.689 70.817 256.092L68.7081 273.385L71.2387 271.276L75.8783 269.589L83.892 271.276L104.559 280.977L115.525 292.786L122.695 317.249L131.131 301.222L139.988 329.903L148.424 317.249L163.608 332.855L168.247 351.413L180.479 320.624L177.526 292.786H182.588H192.289L202.411 296.582L205.364 292.786L207.472 284.351V271.276C203.961 265.964 201.396 261.919 196.506 256.092C202.39 260.413 207.482 263.15 211.69 269.167C212.534 278.024 214.653 289.534 216.33 302.487L212.534 296.582L210.003 291.943L207.472 292.786L210.003 305.018L209.16 320.624L204.098 302.487C200.724 299.957 198.615 299.535 196.085 297.426C190.329 296.625 188.305 296.815 184.275 297.426V298.691C187.886 312.734 188.717 320.375 184.275 332.855C178.363 347.027 173.091 355.639 162.764 367.441L163.186 353.944L158.968 340.025L148.424 323.998L137.458 342.134L129.866 308.392L122.695 340.025L115.525 327.372L109.62 302.487L108.355 293.63L104.559 286.882L83.892 275.494L73.3476 273.807L65.7556 279.711V262.419L68.7081 246.391L72.9258 231.629L64.9121 235.425L56.4766 244.704C57.6377 239.483 58.8569 236.75 62.8032 232.472L70.817 221.084L79.2525 196.2L85.1574 171.315L67.4427 187.342L98.2324 126.185Z" fill="#DDDBDB" stroke="#CACACB" stroke-width="2" />
	<path d="M241.826 146.326L237.451 138.6C234.478 136.243 232.482 136.703 228.702 138.6C226.223 142.723 224.845 145.317 222.442 151.123L211.054 159.559C208.177 166.274 209.374 164.517 206.415 170.946C200.51 176.851 194.614 176.689 183.499 174.912C177.707 173.467 171.829 173.477 166.346 174.912C162.128 176.851 161.648 178.741 166.346 184.865C167.733 186.883 179.421 187.396 190.06 189.083C200.7 190.77 214.849 190.364 214.849 190.364C227.049 192.475 232.856 194.028 237.451 198.863C238.38 195.901 238.413 191.928 237.451 188.239L241.826 190.364L249.117 208.906C265.913 180.88 264.345 165.963 241.826 146.326Z" fill="#82570D" />
	<path d="M241.826 190.364L249.117 208.906C265.913 180.88 264.345 165.963 241.826 146.326L237.451 138.6C234.478 136.243 232.482 136.703 228.702 138.6C226.223 142.723 224.845 145.317 222.442 151.123L211.054 159.558C208.177 166.274 209.374 164.517 206.415 170.946C200.51 176.851 194.614 176.689 183.499 174.912C177.707 173.467 171.829 173.477 166.346 174.912C162.128 176.851 161.648 178.741 166.346 184.865C167.733 186.883 179.421 187.396 190.06 189.083C200.7 190.77 214.849 190.364 214.849 190.364C227.049 192.475 232.856 194.028 237.451 198.863C238.38 195.901 238.413 191.928 237.451 188.239L241.826 190.364ZM241.826 190.364C235.738 186.106 230.254 184.297 214.849 182.638H190.06C184.741 182.267 181.889 182.284 174.749 178.775" stroke="black" stroke-width="3" />
	<path d="M246.697 119.016C248.006 123.729 247.963 129.139 241.636 136.731C236.115 136.518 235.256 135.994 232.357 137.574C228.143 142.548 227.304 145.751 224.847 150.649C219.998 154.245 213.881 156.554 212.194 162.881C210.507 169.207 207.637 173.719 201.228 175.112C194.819 176.506 195.745 175.112 177.608 173.425C159.472 171.738 163.772 183.97 177.608 186.5C191.445 189.031 219.349 190.345 218.942 191.14C228.628 211.794 233.26 225.065 234.548 237.113C229.213 230.118 224.628 226.329 213.459 219.821C222.288 234.78 227.233 247.829 230.33 265.794C224.773 260.194 220.5 252.985 213.459 248.08C221.133 263.971 223.872 273.119 226.113 289.835C221.986 285.295 219.312 281.847 213.459 272.964C213.885 284.31 215.357 291.701 219.786 307.128C214.223 301.596 211.03 298.743 209.771 294.873C213.845 315.008 210.524 321.29 208.084 325.905L207.976 326.108C206.32 303.253 200.372 297.378 186.466 298.693C193.284 324.592 187.468 340.787 160.737 372.504C163.012 353.14 161.897 342.93 148.506 327.795C141.956 334.095 139.956 339.297 136.696 348.884C134.601 337.511 135.057 327.985 130.369 315.142C125.999 327 124.27 333.648 123.621 345.51C95.3606 292.787 118.899 296.81 94.436 283.087C77.1432 273.386 72.2535 272.709 64.1505 284.774C62.5663 266.527 64.0896 252.962 70.4772 234.161C63.3555 236.336 58.4099 243.454 54.8714 249.767C54.4612 241.533 55.2932 236.692 64.1505 227.834C73.0079 218.977 81.8652 177.221 81.8652 177.221C77.2883 181.75 73.2306 185.167 64.1505 191.14C74.7391 169.6 81.5206 155.863 93.6749 131.248C88.2806 134.622 84.0372 137.22 75.1167 142.636C84.2751 125.044 94.6083 114.898 115.607 96.6619C107.678 101.249 103.454 103.526 96.2055 107.206C110.546 85.6957 146.639 84.1579 174.656 87.8045C166.565 82.2548 147.352 83.0014 137.961 81.8997C142.601 79.7907 166.22 73.8859 203.337 93.2877C199.275 87.6512 192.805 84.4474 180.139 78.5256C188.23 77.6128 201.992 85.4142 218.942 96.6619C216.784 92.1463 215.117 89.6968 210.085 85.6957C214.914 86.1577 219.449 88.5381 231.596 97.5055C244.922 113.601 244.855 116.522 246.697 119.016Z" fill="white" stroke="black" stroke-width="3" />
	<path d="M105.402 200.42C109.623 162.756 114.689 145.095 124.804 124.922C124.036 138.645 120.036 145.901 121.43 162.882L132.396 156.133C126.43 169.145 126.775 176.442 132.396 189.454L140.41 181.862C140.41 181.862 159.388 198.527 148.009 222.701C146.593 208.398 144.213 204.565 137.879 192.828C133.908 200.759 131.572 204.696 127.335 211.386C127.472 198.796 126.325 191.717 121.43 178.487C114.014 187.41 111.136 193.259 105.402 200.42Z" fill="#9B9797" stroke="black" stroke-opacity="0.2" stroke-width="2" />
	<path d="M219.319 164.318C218.897 165.831 222.772 167.518 225.609 167.518C226.332 164.739 225.224 161.191 223.591 161.191C220.743 162.233 220.133 163.172 219.319 164.318Z" fill="#5E5858" stroke="black" stroke-width="2" />
	<path d="M148.846 112.266C149.981 112.291 152.57 112.122 158.888 116.411L164.371 120.628C168.167 122.737 166.902 121.894 171.963 124.003C169.737 121.001 169.728 123.06 167.324 118.941C173.216 122.011 171.542 120.628 182.086 127.799C187.357 129.446 195.242 137.572 195.242 137.572L201.488 144.248L204.018 146.008C199.473 145.627 196.426 142.139 193.555 139.681C188.834 143.826 188.837 143.553 185.038 145.935C178.712 147.622 176.181 148.887 169.935 146.851C164.03 143.899 162.101 141.317 160.234 135.463V135.463C160.234 130.844 160.234 129.58 161.244 127.028C158.899 126.595 157.689 126.437 155.045 125.762L148.846 124.497C151.464 123.564 153.526 123.249 162.343 124.497L150.323 118.592L143.363 117.327C146.471 115.926 149.281 115.792 157.282 117.327C154.004 115.619 152.158 114.519 148.846 112.266Z" fill="black" />
	<path d="M195.242 137.572C195.242 137.572 187.357 129.446 182.086 127.799M195.242 137.572L193.555 139.681M195.242 137.572L201.488 144.248L204.018 146.008C199.473 145.627 196.426 142.139 193.555 139.681M157.282 119.858L150.323 118.592M182.086 127.799C171.542 120.628 173.216 122.011 167.324 118.941C169.728 123.06 169.737 121.001 171.963 124.003M182.086 127.799L171.963 124.003M150.323 118.592L143.363 117.327C146.471 115.926 149.281 115.792 157.282 117.327C154.004 115.619 152.158 114.519 148.846 112.266C149.981 112.291 152.57 112.122 158.888 116.411L164.371 120.628C168.167 122.737 166.902 121.894 171.963 124.003M150.323 118.592L162.343 124.497M162.343 124.497C153.526 123.249 151.464 123.564 148.846 124.497L155.045 125.762C157.689 126.437 158.899 126.595 161.244 127.028M162.343 124.497C161.884 125.507 161.525 126.317 161.244 127.028M193.555 139.681C188.834 143.826 188.837 143.553 185.038 145.935C178.712 147.622 176.181 148.887 169.935 146.851C164.03 143.899 162.101 141.317 160.234 135.463C160.234 130.844 160.234 129.58 161.244 127.028" stroke="black" stroke-width="0.5" />
	<path d="M189.653 138.841C183.82 127.47 177.422 126.175 163.503 127.453C161.433 137.167 163.503 143.059 172.36 145.589C179.604 146.642 183.326 146.011 189.653 138.841Z" fill="#FFE2E2" stroke="black" stroke-width="2" />
	<path d="M180.851 134.408C178.71 131.597 175.757 129.91 169.601 130.753C167.322 131.597 167.274 133.596 168.05 137.658C169.601 141.313 173.378 141.393 177.36 141.719C181.239 140.907 182.506 137.658 180.851 134.408Z" fill="black" stroke="black" stroke-width="3" />
	<path d="M171.665 137.481C171.429 136.579 171.292 136.081 171.665 135.059C171.665 135.059 172.514 133.949 171.665 134.251C170.816 134.553 170.457 134.892 170.355 136.27C170.486 137.481 171.534 139.128 171.665 138.087C171.694 137.855 171.665 137.718 171.665 137.481Z" fill="#D9D9D9" stroke="#D9D9D9" stroke-width="2" />
	<path d="M196.085 212.229C196.085 205.902 180.901 193.67 173.73 187.344C194.398 190.296 197.35 190.296 218.017 191.983C228.983 213.916 231.092 221.929 232.779 232.896C226.453 225.725 216.146 220.833 210.003 216.446C221.391 234.161 226.453 250.61 228.561 261.998C226.031 259.467 216.752 248.923 210.425 244.705C213.939 252.223 216.328 256.049 219.704 264.951C222.907 274.714 223.636 279.609 224.344 286.039C219.563 280.136 216.33 275.495 212.112 268.747C197.992 257.608 192.41 252.935 190.18 244.284C185.978 228.123 196.085 218.555 196.085 212.229Z" fill="#625C5C" fill-opacity="0.61" />
	<path d="M125.648 124.078C122.614 141.24 120.753 150.902 121.852 162.038L133.24 154.868C129.607 161.521 128.179 165.412 128.179 173.848C128.179 182.283 130.709 183.549 132.396 189.453C135.394 186.821 137.187 185.158 140.832 181.44C150.56 198.161 154.913 207.549 147.158 224.461" stroke="#5B5757" stroke-width="4" />
	<path d="M221.569 107.315C227.146 110.71 229.06 113.601 232.653 117.383V118.568C229.236 120.589 227.319 120.833 223.902 118.568L221.569 115.607L219.818 118.568L201.15 106.13C190.602 102.989 174.996 95.3972 165.295 96.2408H157.281C159.184 97.5056 159.427 98.3088 172.043 98.3496L178.981 100.459L189.758 104.676C185.702 105.633 179.635 103.833 168.247 103.411C175.696 107.958 180.239 109.79 191.867 106.13L202.317 110.276C204.273 111.453 205.951 112.493 207.473 113.485C208.324 114.039 209.126 114.578 209.901 115.117C212.656 117.032 215.059 118.943 218.068 121.529H209.901C214.926 125.413 217.977 126.76 223.902 127.452L240.793 134.201C243.324 130.826 244.037 130.564 245.011 125.765L236.153 115.607C227.115 105.816 222.936 102.764 216.318 99.615L221.569 107.315Z" fill="#DDDBDB" stroke="#D4D4D5" stroke-width="2" />
	<path d="M209.581 102.569L217.594 108.895L206.206 102.569C201.824 100.668 199.214 99.2682 195.662 99.1945L178.791 92.8679C184.078 91.9586 187.993 93.2637 197.899 96.5659L198.193 96.6639C208.315 100.038 205.709 99.9391 209.581 102.569Z" fill="#DDDBDB" stroke="#CACACB" stroke-width="2" />
	<path d="M98.2324 219.821C101.745 166.244 107.373 156.348 122.274 128.645C111.435 155.723 107.097 169.135 104.988 202.034L121.016 179.679C126.361 192.518 127.142 199.291 126.921 213.422L137.887 194.442C143.37 203.299 146.322 210.469 148.853 225.231C144.635 239.15 143.792 241.259 138.301 251.876C136.192 234.161 133.9 232.131 136.192 214.338C131.82 224.674 130.684 225.021 122.274 229.1C122.14 216.427 121.225 212.483 117.212 201.263C108.457 208.422 103.893 210.67 98.2324 219.821Z" fill="#DDDBDB" />
	<path d="M135.445 273.404L150.821 261.504L167.316 273.404L160.886 290.528L175.424 395.885L151.101 432.745L126.498 395.885L142.154 290.528L135.445 273.404Z" fill="#100830" />
	<path d="M160.886 290.528L167.316 273.404L150.821 261.504L135.445 273.404L142.154 290.528M160.886 290.528H142.154M160.886 290.528L175.424 395.885L151.101 432.745L126.498 395.885L142.154 290.528" stroke="#6E6969" stroke-width="3" />
	<path d="M135.356 273.734C109.839 266.015 93.0338 258.243 69.1367 239.148" stroke="#2F2C2C" stroke-width="4" />
	<path d="M221.819 237.883C206.581 251.364 194.695 263.444 167.41 273.734" stroke="#2F2C2C" stroke-width="4" />
	<path d="M72.3358 44.7818L145.849 10.3062L226.631 24.3623L228.762 46.6272C229.47 50.4911 231.192 52.5509 230.959 56.0257L227.783 56.3301C227.9 52.5496 228.148 50.424 228.762 46.6272L226.631 24.3623L153.591 57.6152L100.861 49.2871L99.1326 49.0141L72.3358 44.7818Z" fill="#1E1348" />
	<path d="M109.901 87.73L113.327 57.1437C128.89 59.9203 137.596 61.4265 152.889 63.508C168.016 56.2287 175.81 52.839 189.435 47.0716L200.167 79.0786C173.759 75.5624 155.26 75.0491 109.901 87.73Z" fill="#1E1348" />
	<path d="M226.631 24.3623L145.849 10.3062L72.3358 44.7818L99.1326 49.0141L100.861 49.2871L153.591 57.6152L226.631 24.3623ZM226.631 24.3623C227.463 33.0573 227.93 37.9322 228.762 46.6272M228.762 46.6272C229.47 50.4911 231.192 52.5509 230.959 56.0257L227.783 56.3301C227.9 52.5496 228.148 50.424 228.762 46.6272ZM113.327 57.1437L109.901 87.73C155.26 75.0491 173.759 75.5624 200.167 79.0786L189.435 47.0716C175.81 52.839 168.016 56.2287 152.889 63.508C137.596 61.4265 128.89 59.9203 113.327 57.1437Z" stroke="#2C2D42" stroke-width="2" />
	<path d="M253.625 170.454C251.405 163.349 249.084 160.193 242.968 154.468C240.814 153.68 239.919 153.654 240.303 156.244C246.076 163.349 248.391 165.599 250.517 171.342C252.737 179.335 253.541 180.77 253.625 186.884C255.363 181.751 255.845 179.335 253.625 170.454Z" fill="white" stroke="white" />
</svg>
